<?xml version="1.0" encoding="UTF-8"?>
<svg width="24px" height="20px" viewBox="0 0 24 20" version="1.1" xmlns="http://www.w3.org/2000/svg" xmlns:xlink="http://www.w3.org/1999/xlink">
    <!-- Generator: Sketch 39.1 (31720) - http://www.bohemiancoding.com/sketch -->
    <title>Diamond 2</title>
    <desc>Created with Sketch.</desc>
    <defs></defs>
    <g id="user-dashboard" stroke="none" stroke-width="1" fill="none" fill-rule="evenodd">
        <g id="Desktop-Landscape" transform="translate(-31.000000, -341.000000)" fill="#FFFFFF">
            <path d="M54.7968,347.2112 C54.7968,347.1928 54.7808,347.1832 54.7784,347.164 C54.7736,347.1232 54.7816,347.0808 54.764,347.0424 L52.3184,341.2624 C52.2512,341.1048 52.0952,341 51.9216,341 L33.8768,341 C33.7032,341 33.5472,341.1048 33.48,341.2624 L31.0328,347.0424 C31.016,347.0816 31.0232,347.124 31.0168,347.164 C31.016,347.1832 31,347.1928 31,347.2112 C31,347.2208 31.0096,347.2272 31.0096,347.236 C31.016,347.3296 31.0424,347.42 31.1064,347.4952 L42.5752,360.508 C42.5848,360.5192 42.6016,360.5144 42.6112,360.5248 C42.6424,360.5528 42.6672,360.5776 42.7048,360.5984 C42.7128,360.6016 42.7144,360.6152 42.7248,360.6184 C42.7808,360.6416 42.8408,360.6544 42.8968,360.6544 C42.9544,360.6544 43.0136,360.6416 43.0704,360.6184 C43.0816,360.6152 43.0832,360.6016 43.0904,360.5968 C43.128,360.5784 43.1528,360.5528 43.1824,360.5248 C43.1936,360.5136 43.2104,360.5184 43.22,360.508 L54.6888,347.4952 C54.7528,347.42 54.7808,347.3296 54.7872,347.236 C54.7872,347.2272 54.7968,347.2208 54.7968,347.2112 L54.7968,347.2112 Z M45.8232,341.8616 L47.9328,346.7816 L37.864,346.7816 L39.9752,341.8616 L45.8232,341.8616 L45.8232,341.8616 Z M47.9264,347.6408 L42.8968,359.1488 L37.8704,347.6408 L47.9264,347.6408 L47.9264,347.6408 Z M36.9296,347.6408 L41.4,357.8752 L32.3816,347.6408 L36.9296,347.6408 L36.9296,347.6408 Z M48.8672,347.6408 L53.4144,347.6408 L44.3952,357.8736 L48.8672,347.6408 L48.8672,347.6408 Z M53.7184,346.7816 L48.8688,346.7816 L46.7592,341.8616 L51.636,341.8616 L53.7184,346.7816 L53.7184,346.7816 Z M34.1608,341.8616 L39.0408,341.8616 L36.9296,346.7816 L32.0784,346.7816 L34.1608,341.8616 L34.1608,341.8616 Z" id="Diamond-2"></path>
        </g>
    </g>
</svg>