<?xml version="1.0" encoding="UTF-8"?>
<svg width="22px" height="22px" viewBox="0 0 22 22" version="1.1" xmlns="http://www.w3.org/2000/svg" xmlns:xlink="http://www.w3.org/1999/xlink">
    <!-- Generator: Sketch 39.1 (31720) - http://www.bohemiancoding.com/sketch -->
    <title>Present 3</title>
    <desc>Created with Sketch.</desc>
    <defs></defs>
    <g id="user-dashboard" stroke="none" stroke-width="1" fill="none" fill-rule="evenodd">
        <g id="Desktop-Landscape" transform="translate(-31.000000, -272.000000)" fill="#FFFFFF">
            <path d="M48.2214049,278.615048 C49.0470695,277.91951 49.5769876,276.91951 49.5769876,275.800525 C49.5769876,273.704287 47.7623913,272 45.5260997,272 C44.0044511,272 42.6927172,272.79965 42.0004651,273.965004 C41.3082129,272.79965 39.998345,272 38.4766964,272 C36.2413377,272 34.4239426,273.703412 34.4239426,275.800525 C34.4239426,276.91951 34.9538607,277.91951 35.7795253,278.615048 L31.5243204,278.615048 C31.2360375,278.615048 31,278.83902 31,279.108486 L31,293.508311 C31,293.776903 31.2369704,294 31.5243204,294 L52.473811,294 C52.7648927,294 52.9999972,293.776028 52.9999972,293.508311 L52.9999972,279.108486 C53.0009302,278.83902 52.7658257,278.615048 52.4747439,278.615048 L48.2214049,278.615048 Z M51.9494906,279.600175 L51.9494906,285.99825 L42.5247855,285.99825 L42.5247855,279.600175 L45.5279656,279.600175 L51.9494906,279.600175 L51.9494906,279.600175 Z M45.5260997,272.985127 C47.1802278,272.985127 48.5274139,274.251094 48.5274139,275.8014 C48.5274139,277.351706 47.1830267,278.615923 45.5279656,278.615923 L45.5260997,278.615923 L42.5247855,278.615923 L42.5247855,275.8014 C42.5257184,274.251094 43.8719716,272.985127 45.5260997,272.985127 L45.5260997,272.985127 Z M35.4716503,275.8014 C35.4716503,274.251969 36.8216353,272.985127 38.4766964,272.985127 C40.1317575,272.985127 41.4761447,274.251094 41.4761447,275.8014 L41.4761447,278.615923 L38.4748305,278.615923 C36.8197694,278.615048 35.4716503,277.350831 35.4716503,275.8014 L35.4716503,275.8014 Z M38.4766964,279.600175 L41.4761447,279.600175 L41.4761447,285.99825 L32.0514396,285.99825 L32.0514396,279.600175 L38.4766964,279.600175 L38.4766964,279.600175 Z M32.0514396,286.798775 L41.4761447,286.798775 L41.4761447,293.19685 L32.0514396,293.19685 L32.0514396,286.798775 L32.0514396,286.798775 Z M42.5257184,293.19685 L42.5257184,286.798775 L51.9504236,286.798775 L51.9504236,293.19685 L42.5257184,293.19685 L42.5257184,293.19685 Z" id="Present-3"></path>
        </g>
    </g>
</svg>