<?xml version="1.0" encoding="UTF-8"?>
<svg width="301px" height="187px" viewBox="0 0 301 187" version="1.1" xmlns="http://www.w3.org/2000/svg" xmlns:xlink="http://www.w3.org/1999/xlink">
    <!-- Generator: Sketch 39.1 (31720) - http://www.bohemiancoding.com/sketch -->
    <title>fly</title>
    <desc>Created with Sketch.</desc>
    <defs>
        <rect id="path-1" x="0.0204173469" y="0" width="300" height="187"></rect>
    </defs>
    <g id="Home_slicing" stroke="none" stroke-width="1" fill="none" fill-rule="evenodd">
        <g id="Artboard" transform="translate(-570.000000, -308.000000)">
            <g id="Header" transform="translate(221.000000, 31.000000)">
                <g id="fly" transform="translate(349.000000, 277.000000)">
                    <g id="Layer_1">
                        <mask id="mask-2" fill="white">
                            <use xlink:href="#path-1"></use>
                        </mask>
                        <use id="Rectangle-path" fill="#B5E2EE" xlink:href="#path-1"></use>
                        <ellipse id="Oval" fill="#FFE96E" mask="url(#mask-2)" cx="251.52952" cy="29.8329796" rx="11.6176612" ry="11.6176612"></ellipse>
                        <g id="Group" mask="url(#mask-2)" fill="#E5F4F4">
                            <g transform="translate(137.431633, 19.975510)" id="Shape">
                                <path d="M64.3562837,26.6891949 L123.190109,26.6891949 C123.190109,26.6891949 123.977417,23.9343796 120.632216,23.8689296 C120.632216,23.8689296 122.862478,20.8517418 121.353693,18.4905806 C119.845481,16.1294194 116.56592,16.8508959 114.532582,17.7691041 C114.532582,17.7691041 115.057327,12.5218459 109.678596,10.9476112 C104.300438,9.37356735 99.9715786,12.4563959 99.9715786,12.4563959 C99.9715786,12.4563959 98.2006122,9.9212102 95.839451,10.5001469 C93.4782898,11.0790837 93.0191857,13.5056949 93.0191857,13.5056949 C93.0191857,13.5056949 90.5267429,8.25862755 83.3117867,9.50484898 C76.0968306,10.7508796 75.4409949,18.0015184 75.4409949,18.0015184 C75.4409949,18.0015184 72.0301531,17.24455 71.8334214,19.736802 C71.8334214,19.736802 64.6841061,19.1466071 64.3562837,26.6891949 L64.3562837,26.6891949 Z"></path>
                                <path d="M0.716621429,7.01109082 L19.0523531,7.01109082 C19.0523531,7.01109082 18.1511276,2.44886327 12.6928265,3.67104184 C12.6928265,3.67104184 11.87785,0.839518367 8.21188673,0.707473469 C4.54554184,0.575237755 2.98313776,4.73026327 2.98313776,4.73026327 C2.98313776,4.73026327 0.635333673,4.32248878 0.716621429,7.01109082 L0.716621429,7.01109082 Z"></path>
                                <path d="M119.5165,12.3921224 L137.852041,12.3921224 C137.852041,12.3921224 136.951006,7.82951327 131.492514,9.05169184 C131.492514,9.05169184 130.677729,6.22035918 127.011574,6.08812347 C123.345611,5.95607857 121.783398,10.1111041 121.783398,10.1111041 C121.783398,10.1111041 119.434831,9.70371122 119.5165,12.3921224 L119.5165,12.3921224 Z"></path>
                                <path d="M24.2226163,14.1006918 L45.4045643,14.1006918 C45.4045643,14.1006918 46.0563929,11.3506469 42.879301,11.7072827 C42.879301,11.7072827 42.7161531,9.33123776 38.4800306,8.49794286 C34.2433357,7.66464796 33.2661653,11.7042296 33.2661653,11.7042296 C33.2661653,11.7042296 32.4511888,10.1086235 30.5775633,10.4345378 C28.7035561,10.760452 28.7035561,11.7072827 28.7035561,11.7072827 C28.7035561,11.7072827 24.6302,10.8417398 24.2226163,14.1006918 L24.2226163,14.1006918 Z"></path>
                            </g>
                        </g>
                        <g id="Group" mask="url(#mask-2)" opacity="0.5">
                            <g transform="translate(153.843878, 129.344898)">
                                <g transform="translate(0.526531, 0.190816)">
                                    <path d="" id="Shape" fill="#984E9E"></path>
                                </g>
                            </g>
                        </g>
                        <g id="Group" mask="url(#mask-2)">
                            <g transform="translate(53.237755, 58.580612)">
                                <path d="M111.323008,26.3257837 C111.323008,26.3257837 114.35279,26.3912337 116.220118,24.4571194 C118.087638,22.5231959 130.625415,6.1171898 130.625415,6.1171898 C130.625415,6.1171898 131.625674,4.58321735 133.426408,5.1167398 C135.227142,5.65026224 137.761373,6.73276327 137.761373,6.73276327 C137.761373,6.73276327 138.895013,7.31742449 138.495062,8.58463571 C138.09473,9.85184694 132.715236,34.2156571 132.715236,34.2156571 L110.018015,27.5916592 L111.323008,26.3257837 L111.323008,26.3257837 Z" id="Shape" fill="#FFFFFF"></path>
                                <g id="Group" stroke-width="1" fill="none" transform="translate(52.665306, 42.742857)">
                                    <ellipse id="Oval" fill="#191919" cx="1.83565306" cy="2.07398265" rx="1.8326" ry="2.03314796"></ellipse>
                                    <path d="M2.32757755,3.78770408 C1.44619694,3.78770408 0.731780612,2.99505306 0.731780612,2.0173102 C0.731780612,1.03956735 1.44619694,0.247107143 2.32757755,0.247107143 C2.47202551,0.247107143 2.61132143,0.270195918 2.74432041,0.310267347 C2.47641429,0.139677551 2.16671939,0.0412163265 1.83584388,0.0412163265 C0.823754082,0.0412163265 0.00324387755,0.951410204 0.00324387755,2.07417347 C0.00324387755,3.19693673 0.823754082,4.10732143 1.83584388,4.10732143 C2.30162653,4.10732143 2.72562041,3.91268878 3.04886327,3.59497959 C2.83209592,3.71710204 2.58746939,3.78770408 2.32757755,3.78770408 L2.32757755,3.78770408 Z" id="Shape" fill="#3A3A3A"></path>
                                    <ellipse id="Oval" fill="#C1D0D6" cx="2.32757755" cy="2.01711939" rx="0.89397449" ry="0.992054082"></ellipse>
                                    <path d="M2.15469796,2.01711939 C2.15469796,1.61182551 2.37413673,1.26377653 2.68822041,1.10978776 C2.57773776,1.05578673 2.45599694,1.02525612 2.32757755,1.02525612 C1.83393571,1.02525612 1.43341224,1.46947653 1.43341224,2.01711939 C1.43341224,2.56495306 1.8337449,3.00917347 2.32757755,3.00917347 C2.45599694,3.00917347 2.57792857,2.97845204 2.68822041,2.92464184 C2.37413673,2.77065306 2.15469796,2.42241327 2.15469796,2.01711939 L2.15469796,2.01711939 Z" id="Shape" fill="#C1D0D6"></path>
                                </g>
                                <path d="M49.7294061,27.098399 C49.7294061,27.098399 21.3191449,39.8628663 21.5193112,40.1296276 C21.7192867,40.3963888 27.2546776,41.2632673 28.4551031,41.3300531 C29.6555286,41.3968388 41.7265694,40.0628418 47.662102,39.1293684 C53.5974439,38.1955133 66.9656541,37.528801 66.9656541,37.528801 C66.9656541,37.528801 61.2075806,27.2418929 49.7294061,27.098399 L49.7294061,27.098399 Z" id="Shape" fill="#9B9B9B"></path>
                                <path d="M21.9564714,40.5898765 C21.9564714,40.5898765 21.1462653,40.1393592 21.5191204,39.9010296 C21.8919755,39.6627 46.2340327,28.4341133 46.2340327,28.4341133 C46.2340327,28.4341133 47.2936357,30.4100163 47.2073867,31.0328408 C47.1211378,31.6556653 25.364451,39.2148541 21.9564714,40.5898765 L21.9564714,40.5898765 Z" id="Shape" fill="#E4E4E4"></path>
                                <g id="Group" stroke-width="1" fill="none" transform="translate(31.675510, 29.576531)">
                                    <path d="M18.6509602,6.2293898 C18.6509602,6.2293898 23.1549888,8.24345612 23.380152,8.56517245 C23.6053153,8.88688878 23.9592796,9.93160816 23.380152,11.0660112 C22.8010245,12.2006051 22.1575918,11.975251 22.1575918,11.975251 L17.1389316,11.7178398 L18.6509602,6.2293898 L18.6509602,6.2293898 Z" id="Shape" fill="#71B2D4"></path>
                                    <path d="M4.5078449,0.046177551 C4.5078449,0.046177551 5.78249796,-0.193106122 10.0934204,0.964958163 C14.4043429,2.12321327 18.6187122,4.60306224 18.6187122,4.60306224 C18.6187122,4.60306224 19.9700735,6.0483051 19.4230031,9.36183061 C18.8761235,12.6751653 15.9486194,13.1899878 15.5946551,13.1899878 C15.2408816,13.1899878 6.59308571,12.2836102 3.98405408,11.401848 C1.37502245,10.5198949 1.41051429,3.44652449 4.5078449,0.046177551 L4.5078449,0.046177551 Z" id="Shape" fill="#E4E4E4"></path>
                                    <ellipse id="Oval" fill="#586870" cx="4.50803571" cy="5.74509796" rx="4.34526939" ry="5.69911122"></ellipse>
                                    <ellipse id="Oval" fill="#6A797F" cx="4.5078449" cy="5.74509796" rx="3.23681735" ry="4.24547245"></ellipse>
                                </g>
                                <path d="M51.7423276,33.2295184 L51.0704633,39.1868041 L53.9370969,40.4858816 C53.9370969,40.4858816 54.3338041,42.3230612 54.3927663,42.3425245 C54.4519194,42.3623694 56.0274898,42.3425245 56.0274898,42.3425245 L56.0274898,34.8190184 C56.0274898,34.8188276 55.4926316,33.8657 51.7423276,33.2295184 L51.7423276,33.2295184 Z" id="Shape" fill="#9B9B9B"></path>
                                <path d="M140.783904,41.6748582 C140.783904,41.6748582 110.056942,46.3273418 98.4801153,43.1895582 C86.9032888,40.0517745 80.6279122,38.5372653 80.6279122,38.5372653 C80.6279122,38.5372653 76.1920051,40.268351 63.7496357,37.0223745 C51.3072663,33.7765888 43.8419592,31.3967276 39.6224378,27.2852082 C39.6224378,27.2852082 11.4921041,20.6852531 4.78395612,15.4919959 C-1.92400102,10.298548 -1.38303673,5.97083367 5.43311327,4.8889051 C5.43311327,4.8889051 11.4919133,-1.27808776 20.9048827,0.452997959 C30.3176612,2.18408367 109.948558,26.2032796 117.521867,28.0425582 C125.095558,29.8816459 140.459135,37.8881082 141.324678,39.2946153 C141.324868,39.2948061 141.919261,41.5103745 140.783904,41.6748582 L140.783904,41.6748582 Z" id="Shape" fill="#FFFFFF"></path>
                                <path d="M141.47962,40.5238541 C126.974336,43.8280296 84.3656224,32.4706418 84.3656224,32.4706418 C84.3656224,32.4706418 63.1153622,25.995099 55.5550286,24.1149857 C47.9945041,22.2346816 20.5791592,11.0221235 9.87856122,8.17323571 C-0.819365306,5.32511122 0.496694898,10.759751 0.497267347,10.7626133 C1.17542857,12.1914459 2.59262143,13.795448 4.78395612,15.4919959 C11.4921041,20.6852531 39.6224378,27.2852082 39.6224378,27.2852082 C43.84215,31.3967276 51.3074571,33.7767796 63.7496357,37.0223745 C76.1920051,40.2685418 80.6279122,38.5372653 80.6279122,38.5372653 C80.6279122,38.5372653 86.9032888,40.0519653 98.4801153,43.1895582 C110.056942,46.327151 140.783904,41.6748582 140.783904,41.6748582 C141.318571,41.5973867 141.469507,41.0653908 141.47962,40.5238541 L141.47962,40.5238541 Z" id="Shape" fill="#CACACA" opacity="0.5"></path>
                                <g id="Group" stroke-width="1" fill="none" transform="translate(100.369388, 26.141837)">
                                    <path d="M0.990336735,1.22561327 C1.02468367,1.49161122 0.856192857,1.73261224 0.613283673,1.76428776 L0.613283673,1.76428776 C0.370565306,1.79596327 0.14597449,1.60610102 0.110864286,1.34048469 L0.0257602041,0.687320408 C-0.00896836735,0.421704082 0.159713265,0.180512245 0.402431633,0.149027551 L0.402431633,0.149027551 C0.645340816,0.117161224 0.869931633,0.307023469 0.90485102,0.572639796 L0.990336735,1.22561327 L0.990336735,1.22561327 Z" id="Shape" fill="#0F5166"></path>
                                    <path d="M2.86548878,1.65838469 C2.90021735,1.92419184 2.7313449,2.16519286 2.48881735,2.19686837 L2.48881735,2.19686837 C2.24609898,2.22854388 2.02112653,2.03868163 1.98639796,1.77306531 L1.90110306,1.12009184 C1.86637449,0.854284694 2.03524694,0.613283673 2.27796531,0.581608163 L2.27796531,0.581608163 C2.52049286,0.549741837 2.74546531,0.739604082 2.78038469,1.00522041 L2.86548878,1.65838469 L2.86548878,1.65838469 Z" id="Shape" fill="#0F5166"></path>
                                    <path d="M4.74064082,2.28788776 C4.77536939,2.55388571 4.60649694,2.79488673 4.36377857,2.82656224 L4.36377857,2.82656224 C4.12125102,2.85823776 3.89646939,2.66837551 3.86155,2.40275918 L3.7762551,1.7495949 C3.74152653,1.48397857 3.91039898,1.24297755 4.15292653,1.21130204 L4.15292653,1.21130204 C4.3956449,1.17943571 4.62061735,1.36929796 4.65553673,1.63491429 L4.74064082,2.28788776 L4.74064082,2.28788776 Z" id="Shape" fill="#0F5166"></path>
                                    <path d="M8.67737245,3.35397857 C8.7119102,3.61978571 8.54322857,3.86078673 8.3005102,3.89246224 L8.3005102,3.89246224 C8.05779184,3.92432857 7.8330102,3.73427551 7.79809082,3.46885 L7.71298673,2.81568571 C7.67806735,2.54987857 7.8469398,2.30868673 8.08965816,2.27720204 L8.08965816,2.27720204 C8.33218571,2.24533571 8.55715816,2.43538878 8.59207755,2.7010051 L8.67737245,3.35397857 L8.67737245,3.35397857 Z" id="Shape" fill="#0F5166"></path>
                                    <path d="M10.7229235,4.02259898 C10.7574612,4.28859694 10.5887796,4.52959796 10.3460612,4.56127347 L10.3460612,4.56127347 C10.103152,4.59294898 9.87837041,4.40308673 9.84364184,4.13727959 L9.75834694,3.48411531 C9.72380918,3.21849898 9.89249082,2.97749796 10.1352092,2.94582245 L10.1352092,2.94582245 C10.3779276,2.91395612 10.6027092,3.10381837 10.6376286,3.36962551 L10.7229235,4.02259898 L10.7229235,4.02259898 Z" id="Shape" fill="#0F5166"></path>
                                    <path d="M6.84152857,2.79011633 C6.87606633,3.05611429 6.70738469,3.29692449 6.46447551,3.32879082 L6.46447551,3.32879082 C6.22175714,3.36046633 5.99697551,3.17060408 5.96224694,2.90479694 L5.87695204,2.25163265 C5.84222347,1.98601633 6.0109051,1.74482449 6.25381429,1.7133398 L6.25381429,1.7133398 C6.49634184,1.68147347 6.72131429,1.87133571 6.75623367,2.13714286 L6.84152857,2.79011633 L6.84152857,2.79011633 Z" id="Shape" fill="#0F5166"></path>
                                </g>
                                <path d="M55.5092327,22.2115929 C55.8941092,22.13145 136.249727,6.62838673 139.984384,6.71730714 C143.719041,6.80641837 147.631539,8.22895408 147.631539,8.22895408 C147.631539,8.22895408 84.3200173,33.0379388 82.9860204,32.860098 C81.6522143,32.6822571 53.8197449,25.8353857 53.8197449,25.8353857 C53.8197449,25.8353857 50.5544959,23.2421918 55.5092327,22.2115929 L55.5092327,22.2115929 Z" id="Shape" fill="#9B9B9B"></path>
                                <path d="M81.1085786,23.8379204 C81.1085786,23.8379204 85.6126071,25.8517959 85.8377704,26.1735122 C86.0631245,26.4952286 86.416898,27.539948 85.8377704,28.674351 C85.2586429,29.8089449 84.6152102,29.5837816 84.6152102,29.5837816 L79.5967408,29.3263704 L81.1085786,23.8379204 L81.1085786,23.8379204 Z" id="Shape" fill="#586870"></path>
                                <path d="M137.96154,7.91792347 C138.433238,7.47561122 139.073999,7.05963163 139.642822,6.73295408 C132.878956,7.27868878 55.8860949,22.1333582 55.5094235,22.2115929 C50.5544959,23.242001 53.8199357,25.8353857 53.8199357,25.8353857 C53.8199357,25.8353857 53.9466378,25.8664888 54.1813418,25.9243061 C54.1813418,25.9241153 53.797801,25.1242133 54.3313235,24.4573102 C54.8646551,23.7904071 137.96154,7.91792347 137.96154,7.91792347 L137.96154,7.91792347 Z" id="Shape" fill="#E4E4E4"></path>
                                <path d="M126.490616,35.12795 C126.490616,35.12795 154.567712,30.3260571 155.967922,30.4596286 C157.368514,30.5928184 160.769624,31.4598878 160.636244,31.6598633 C160.503054,31.8600296 138.09473,38.0621327 136.827709,38.3290847 C135.560689,38.5958459 132.359554,38.0623235 129.491966,37.5289918 C126.623997,36.9950878 126.223855,35.6612816 126.490616,35.12795 L126.490616,35.12795 Z" id="Shape" fill="#9B9B9B"></path>
                                <path d="M7.16820612,4.41568061 L9.537,2.66188776 L12.5889163,2.29742857 L11.4957296,3.91440612 C11.4955388,3.91459694 7.60078673,4.34736837 7.16820612,4.41568061 L7.16820612,4.41568061 Z" id="Shape" fill="#0F5166"></path>
                                <polygon id="Shape" fill="#0F5166" points="12.178852 3.84628469 13.2264337 2.29761939 14.9346214 2.41134592 16.027999 4.66622245"></polygon>
                                <path d="M17.0301663,4.8257449 L15.8686673,2.68478571 L17.4856449,2.88991327 L18.3511878,3.35684082 C18.3511878,3.35684082 19.5126867,5.12189184 19.30775,5.19020408 C19.1026224,5.25832551 17.0301663,4.8257449 17.0301663,4.8257449 L17.0301663,4.8257449 Z" id="Shape" fill="#0F5166"></path>
                                <path d="M23.85185,1.71963673 C23.85185,1.71963673 25.9662857,2.08982041 27.9421888,2.6845949 C27.9421888,2.6845949 30.6111367,6.32995 29.5019214,11.2865949 C29.5019214,11.2865949 29.2593939,11.6333082 28.7392286,11.563851 C28.2192541,11.4945847 26.4168031,10.9398816 26.4168031,10.9398816 C26.4168031,10.9398816 25.7235673,10.7664296 25.7928337,9.9693898 C25.8622908,9.17215918 26.2780796,4.8047551 23.85185,1.71963673 L23.85185,1.71963673 Z" id="Shape" fill="#586870"></path>
                                <path d="M32.7719408,7.49183061 C32.8259418,7.75420306 32.6933245,8.00340918 32.4756031,8.04844184 L32.4756031,8.04844184 C32.2576908,8.09328367 32.0374888,7.91696939 31.9832969,7.65440612 L31.8501071,7.00944694 C31.7959153,6.74707449 31.9287235,6.49786837 32.1464449,6.45283571 L32.1464449,6.45283571 C32.3641663,6.40780306 32.5845592,6.58430816 32.638751,6.84668061 L32.7719408,7.49183061 L32.7719408,7.49183061 Z" id="Shape" fill="#0F5166"></path>
                                <path d="M34.8367643,8.0982449 C34.871302,8.36405204 34.7026204,8.60505306 34.459902,8.63672857 L34.459902,8.63672857 C34.2171837,8.66840408 33.992402,8.47854184 33.9576735,8.21292551 L33.8723786,7.55995204 C33.83765,7.2941449 34.0063316,7.05314388 34.24905,7.02146837 L34.24905,7.02146837 C34.4917684,6.98960204 34.7167408,7.17946429 34.7514694,7.44527143 L34.8367643,8.0982449 L34.8367643,8.0982449 Z" id="Shape" fill="#0F5166"></path>
                                <path d="M36.9038776,8.65790918 C36.9384153,8.92371633 36.7697337,9.16490816 36.5272061,9.19658367 L36.5272061,9.19658367 C36.2842969,9.22825918 36.0595153,9.03839694 36.0247867,8.7725898 L35.9396827,8.11961633 C35.9049541,7.85380918 36.0736357,7.61280816 36.3163541,7.58113265 L36.3163541,7.58113265 C36.5590724,7.54945714 36.7840449,7.73912857 36.8187735,8.00493571 L36.9038776,8.65790918 L36.9038776,8.65790918 Z" id="Shape" fill="#0F5166"></path>
                                <path d="M38.9620224,9.25363776 C38.9965602,9.5194449 38.8278786,9.76044592 38.5851602,9.79231224 L38.5851602,9.79231224 C38.3424418,9.82398776 38.1176602,9.63412551 38.0829316,9.36831837 L37.9978276,8.7153449 C37.963099,8.44953776 38.1317806,8.20853673 38.3743082,8.17686122 L38.3743082,8.17686122 C38.6172173,8.14518571 38.841999,8.33485714 38.8767276,8.60066429 L38.9620224,9.25363776 L38.9620224,9.25363776 Z" id="Shape" fill="#0F5166"></path>
                                <path d="M40.9928806,9.83123878 C41.0276092,10.0970459 40.8587367,10.3380469 40.6162092,10.3699133 L40.6162092,10.3699133 C40.3734908,10.4015888 40.1487092,10.2117265 40.1139806,9.94591939 L40.0286857,9.29294592 C39.9939571,9.02713878 40.1626388,8.78613776 40.4053571,8.75446224 L40.4053571,8.75446224 C40.6480755,8.72259592 40.873048,8.91245816 40.9077765,9.17826531 L40.9928806,9.83123878 L40.9928806,9.83123878 Z" id="Shape" fill="#0F5166"></path>
                                <path d="M43.0689622,10.4361265 C43.1035,10.7019337 42.9348184,10.9429347 42.6921,10.974801 L42.6921,10.974801 C42.4493816,11.0064765 42.2246,10.8166143 42.1898714,10.5508071 L42.1045765,9.89783367 C42.069848,9.63202653 42.2385296,9.39102551 42.481248,9.35935 L42.481248,9.35935 C42.7241571,9.32767449 42.9489388,9.51734592 42.9836673,9.78315306 L43.0689622,10.4361265 L43.0689622,10.4361265 Z" id="Shape" fill="#0F5166"></path>
                                <path d="M45.0637561,11.0318551 C45.0982939,11.2976622 44.9296122,11.5386633 44.6868939,11.5705296 L44.6868939,11.5705296 C44.4441755,11.6022051 44.2192031,11.4123429 44.1846653,11.1465357 L44.0993704,10.4935622 C44.0646418,10.2277551 44.2333235,9.98675408 44.4760418,9.95507857 L44.4760418,9.95507857 C44.7187602,9.92340306 44.9437327,10.1130745 44.9784612,10.3788816 L45.0637561,11.0318551 L45.0637561,11.0318551 Z" id="Shape" fill="#0F5166"></path>
                                <path d="M47.202998,11.7178398 C47.2377265,11.9836469 47.0688541,12.2248388 46.8263265,12.2565143 L46.8263265,12.2565143 C46.5836082,12.2881898 46.3588265,12.0983276 46.324098,11.8325204 L46.2388031,11.1795469 C46.2040745,10.9137398 46.3727561,10.6727388 46.6154745,10.6410633 L46.6154745,10.6410633 C46.8581929,10.6093878 47.0831653,10.7990592 47.1177031,11.0648663 L47.202998,11.7178398 L47.202998,11.7178398 Z" id="Shape" fill="#0F5166"></path>
                                <path d="M49.2739276,12.2462102 C49.3086561,12.5120173 49.1397837,12.7532092 48.8972561,12.7848847 L48.8972561,12.7848847 C48.6545378,12.8165602 48.4297561,12.626698 48.3950276,12.3608908 L48.3097327,11.7079173 C48.2750041,11.4421102 48.4436857,11.2011092 48.6864041,11.1694337 L48.6864041,11.1694337 C48.9291224,11.1377582 49.1540949,11.3274296 49.1888235,11.5932367 L49.2739276,12.2462102 L49.2739276,12.2462102 Z" id="Shape" fill="#0F5166"></path>
                                <path d="M51.485298,12.8058745 C51.5200265,13.0716816 51.3511541,13.3126827 51.1084357,13.3443582 L51.1084357,13.3443582 C50.8657173,13.3760337 50.6409357,13.1861714 50.6062071,12.9205551 L50.5209122,12.2675816 C50.4861837,12.0017745 50.6548653,11.7607735 50.8975837,11.729098 L50.8975837,11.729098 C51.140302,11.6972316 51.3652745,11.8870939 51.4000031,12.152901 L51.485298,12.8058745 L51.485298,12.8058745 Z" id="Shape" fill="#0F5166"></path>
                                <path d="M53.4260908,13.4739224 C53.4606286,13.7397296 53.2919469,13.9807306 53.0492286,14.0125969 L53.0492286,14.0125969 C52.8065102,14.0442724 52.5817286,13.8544102 52.547,13.5886031 L52.4617051,12.9356296 C52.4269765,12.6698224 52.5956582,12.4288214 52.8383765,12.3971459 L52.8383765,12.3971459 C53.0810949,12.3652796 53.3060673,12.5551418 53.3407959,12.820949 L53.4260908,13.4739224 L53.4260908,13.4739224 Z" id="Shape" fill="#0F5166"></path>
                                <path d="M55.4298531,13.9702357 C55.4643908,14.2360429 55.2957092,14.4772347 55.0529908,14.5089102 L55.0529908,14.5089102 C54.8102724,14.5405857 54.5854908,14.3507235 54.5507622,14.0849163 L54.4654673,13.4319429 C54.4307388,13.1661357 54.5994204,12.9251347 54.8421388,12.8934592 L54.8421388,12.8934592 C55.0848571,12.8617837 55.3098296,13.0516459 55.3445582,13.3172622 L55.4298531,13.9702357 L55.4298531,13.9702357 Z" id="Shape" fill="#0F5166"></path>
                                <path d="M57.460902,14.593251 C57.4954398,14.8590582 57.3267582,15.1000592 57.0840398,15.1319255 L57.0840398,15.1319255 C56.8413214,15.163601 56.6165398,14.9737388 56.5818112,14.7079316 L56.4965163,14.0549582 C56.4617878,13.789151 56.6304694,13.54815 56.8731878,13.5164745 L56.8731878,13.5164745 C57.1160969,13.4846082 57.3408786,13.6744704 57.3756071,13.9402776 L57.460902,14.593251 L57.460902,14.593251 Z" id="Shape" fill="#0F5166"></path>
                                <path d="M59.5369837,15.1437561 C59.5717122,15.4095633 59.4028398,15.6505643 59.1601214,15.6824306 L59.1601214,15.6824306 C58.9174031,15.7141061 58.6926214,15.5242439 58.6578929,15.2584367 L58.572598,14.6054633 C58.5378694,14.3396561 58.706551,14.0986551 58.9492694,14.0669796 L58.9492694,14.0669796 C59.1919878,14.0353041 59.4169602,14.2249755 59.4516888,14.4907827 L59.5369837,15.1437561 L59.5369837,15.1437561 Z" id="Shape" fill="#0F5166"></path>
                                <path d="M61.396298,15.7394847 C61.4308357,16.0052918 61.2621541,16.2462929 61.0194357,16.2781592 L61.0194357,16.2781592 C60.7767173,16.3098347 60.5519357,16.1199724 60.5172071,15.8541653 L60.4319122,15.2011918 C60.3971837,14.9353847 60.5658653,14.6943837 60.8085837,14.6627082 L60.8085837,14.6627082 C61.0514929,14.6310327 61.2762745,14.8207041 61.3110031,15.0865112 L61.396298,15.7394847 L61.396298,15.7394847 Z" id="Shape" fill="#0F5166"></path>
                                <path d="M64.4562286,16.5067571 C64.4907663,16.7725643 64.3220847,17.0137561 64.0793663,17.0454316 L64.0793663,17.0454316 C63.836648,17.0771071 63.6118663,16.8872449 63.5771378,16.6214378 L63.4920337,15.9684643 C63.4573051,15.7026571 63.6259867,15.4616561 63.8685143,15.4299806 L63.8685143,15.4299806 C64.1114235,15.3983051 64.3362051,15.5879765 64.3709337,15.8537837 L64.4562286,16.5067571 L64.4562286,16.5067571 Z" id="Shape" fill="#0F5166"></path>
                                <path d="M67.6516388,17.112599 C67.6861765,17.3784061 67.5174949,17.6194071 67.2747765,17.6510827 L67.2747765,17.6510827 C67.0320582,17.6827582 66.8072765,17.4928959 66.772548,17.2270888 L66.6872531,16.5741153 C66.6525245,16.308499 66.8212061,16.0673071 67.0639245,16.0356316 L67.0639245,16.0356316 C67.3066429,16.0039561 67.5316153,16.1936276 67.5663439,16.4594347 L67.6516388,17.112599 L67.6516388,17.112599 Z" id="Shape" fill="#0F5166"></path>
                                <rect id="Rectangle-path" fill="#9B9B9B" x="55.0821857" y="42.3505388" width="0.945304082" height="2.57182245"></rect>
                                <path d="M114.482354,12.4269133 C114.482354,12.4269133 125.163298,16.9881867 125.273017,16.9456347 C125.382355,16.9030827 126.606633,19.4693714 126.421159,19.6100031 C126.235686,19.7508255 123.590208,18.7849133 120.776812,17.3572255 C117.963035,15.9295378 114.482354,12.4269133 114.482354,12.4269133 L114.482354,12.4269133 Z" id="Shape" fill="#586870"></path>
                                <path d="M94.5307898,16.3285347 C94.5307898,16.3285347 102.190539,19.1209408 102.265911,19.1209408 C102.341474,19.1209408 107.506682,21.9765071 107.506682,21.9765071 C107.506682,21.9765071 109.419424,24.6639643 109.051149,24.9160327 C108.682492,25.1677194 99.6540173,20.0028939 98.0164316,19.1629204 C96.3786551,18.3231378 94.5307898,16.3285347 94.5307898,16.3285347 L94.5307898,16.3285347 Z" id="Shape" fill="#586870"></path>
                                <path d="M66.9654633,17.6545173 C66.9654633,17.6545173 68.2399255,17.4154245 72.550848,18.5734888 C76.8617704,19.7317439 81.0763306,22.2115929 81.0763306,22.2115929 C81.0763306,22.2115929 82.427501,23.6566449 81.8806214,26.9701704 C81.3337418,30.2836959 78.4062378,30.7985184 78.0522735,30.7985184 C77.6983092,30.7985184 69.0507041,29.8921408 66.4416724,29.0101878 C63.8326408,28.1284255 63.8679418,21.0552459 66.9654633,17.6545173 L66.9654633,17.6545173 Z" id="Shape" fill="#E4E4E4"></path>
                                <ellipse id="Oval" fill="#586870" cx="66.9654633" cy="23.3538194" rx="4.34526939" ry="5.69911122"></ellipse>
                                <ellipse id="Oval" fill="#6A797F" cx="66.9654633" cy="23.3538194" rx="3.23700816" ry="4.24547245"></ellipse>
                                <g id="Group" stroke-width="1" fill="none" transform="translate(17.364286, 27.668367)">
                                    <ellipse id="Oval" fill="#191919" cx="1.86580204" cy="2.21614082" rx="1.83240918" ry="2.03314796"></ellipse>
                                    <path d="M2.35753571,3.92986224 C1.4761551,3.92986224 0.761738776,3.13721122 0.761738776,2.15946837 C0.761738776,1.18172551 1.4761551,0.38907449 2.35753571,0.38907449 C2.50198367,0.38907449 2.64127959,0.412354082 2.77427857,0.452234694 C2.50637245,0.282026531 2.19667755,0.18337449 1.86561122,0.18337449 C0.853521429,0.18337449 0.0332020408,1.09356837 0.0332020408,2.21633163 C0.0332020408,3.33928571 0.853521429,4.24947959 1.86561122,4.24947959 C2.33139388,4.24947959 2.75538776,4.05503776 3.07882143,3.73732857 C2.86205408,3.85945102 2.61742755,3.92986224 2.35753571,3.92986224 L2.35753571,3.92986224 Z" id="Shape" fill="#3A3A3A"></path>
                                    <ellipse id="Oval" fill="#C1D0D6" cx="2.35753571" cy="2.15927755" rx="0.89397449" ry="0.991863265"></ellipse>
                                    <path d="M2.18484694,2.15927755 C2.18484694,1.75398367 2.40428571,1.40593469 2.71836939,1.25213673 C2.60788673,1.1979449 2.48614592,1.16741429 2.35772653,1.16741429 C1.86389388,1.16741429 1.46356122,1.61163469 1.46356122,2.15946837 C1.46356122,2.70730204 1.86389388,3.15133163 2.35772653,3.15133163 C2.48614592,3.15133163 2.60807755,3.12080102 2.71836939,3.0668 C2.40428571,2.91281122 2.18484694,2.56457143 2.18484694,2.15927755 L2.18484694,2.15927755 Z" id="Shape" fill="#C1D0D6"></path>
                                </g>
                                <rect id="Rectangle-path" fill="#9B9B9B" x="19.6357633" y="21.2054184" width="1.06628163" height="8.83326939"></rect>
                                <g id="Group" stroke-width="1" fill="none" transform="translate(19.463265, 28.050000)">
                                    <ellipse id="Oval" fill="#191919" cx="2.00147245" cy="2.04555102" rx="1.8326" ry="2.03295714"></ellipse>
                                    <path d="M2.49320612,3.75908163 C1.61182551,3.75908163 0.8976,2.96643061 0.8976,1.98868776 C0.8976,1.0109449 1.61201633,0.218484694 2.49320612,0.218484694 C2.63765408,0.218484694 2.77695,0.241573469 2.90994898,0.281454082 C2.64204286,0.111245918 2.33234796,0.0125938776 2.00128163,0.0125938776 C0.989191837,0.0125938776 0.168681633,0.922787755 0.168681633,2.04574184 C0.168681633,3.16869592 0.989191837,4.07869898 2.00128163,4.07869898 C2.46706429,4.07869898 2.89105816,3.88425714 3.21449184,3.56654796 C2.99772449,3.68886122 2.75309796,3.75908163 2.49320612,3.75908163 L2.49320612,3.75908163 Z" id="Shape" fill="#3A3A3A"></path>
                                    <ellipse id="Oval" fill="#C1D0D6" cx="2.49320612" cy="1.98868776" rx="0.89397449" ry="0.992054082"></ellipse>
                                    <path d="M2.32051735,1.98868776 C2.32051735,1.58339388 2.53976531,1.2353449 2.85384898,1.08154694 C2.74336633,1.02754592 2.62162551,0.997015306 2.49320612,0.997015306 C1.99937347,0.997015306 1.59904082,1.44123571 1.59904082,1.98887857 C1.59904082,2.53671224 1.99918265,2.98093265 2.49320612,2.98093265 C2.62162551,2.98093265 2.74355714,2.95021122 2.85384898,2.89640102 C2.53995612,2.74203061 2.32051735,2.39398163 2.32051735,1.98868776 L2.32051735,1.98868776 Z" id="Shape" fill="#C1D0D6"></path>
                                </g>
                                <polygon id="Shape" fill="#9B9B9B" points="19.7218214 19.5338673 23.5436816 21.6734908 23.5436816 23.884098 21.0624969 24.7042265 20.7020449 26.3444837 19.455251 26.3444837 18.9203929 22.2115929 16.519351 21.2054184"></polygon>
                                <g id="Group" stroke-width="1" fill="none" transform="translate(80.524490, 38.163265)">
                                    <ellipse id="Oval" fill="#191919" cx="2.00872347" cy="2.07436429" rx="1.83240918" ry="2.03295714"></ellipse>
                                    <path d="M2.50064796,3.7878949 C1.61926735,3.7878949 0.90485102,2.99543469 0.90485102,2.01769184 C0.90485102,1.03994898 1.61926735,0.247488776 2.50064796,0.247488776 C2.64509592,0.247488776 2.78420102,0.270768367 2.91739082,0.310458163 C2.64929388,0.140059184 2.33998061,0.0414071429 2.00872347,0.0414071429 C0.996442857,0.0414071429 0.176123469,0.951791837 0.176123469,2.0745551 C0.176123469,3.19750918 0.996442857,4.10751224 2.00872347,4.10751224 C2.47469694,4.10751224 2.8985,3.91287959 3.22174286,3.59536122 C3.00497551,3.71767449 2.7605398,3.7878949 2.50064796,3.7878949 L2.50064796,3.7878949 Z" id="Shape" fill="#3A3A3A"></path>
                                    <ellipse id="Oval" fill="#C1D0D6" cx="2.50064796" cy="2.01750102" rx="0.89397449" ry="0.991863265"></ellipse>
                                    <path d="M2.32776837,2.01750102 C2.32776837,1.61220714 2.54720714,1.26415816 2.86129082,1.11016939 C2.75099898,1.05635918 2.62887653,1.02563776 2.50064796,1.02563776 C2.00662449,1.02563776 1.60648265,1.46985816 1.60648265,2.01750102 C1.60648265,2.56533469 2.00662449,3.00936429 2.50064796,3.00936429 C2.62887653,3.00936429 2.75099898,2.97902449 2.86129082,2.92483265 C2.54739796,2.77084388 2.32776837,2.4227949 2.32776837,2.01750102 L2.32776837,2.01750102 Z" id="Shape" fill="#C1D0D6"></path>
                                </g>
                                <rect id="Rectangle-path" fill="#9B9B9B" x="82.9390796" y="31.5587306" width="1.06628163" height="8.83307857"></rect>
                                <g id="Group" stroke-width="1" fill="none" transform="translate(82.814286, 38.354082)">
                                    <ellipse id="Oval" fill="#191919" cx="1.95357755" cy="2.09459082" rx="1.8326" ry="2.03314796"></ellipse>
                                    <path d="M2.44531122,3.80812143 C1.56412143,3.80812143 0.849705102,3.01566122 0.849705102,2.03772755 C0.849705102,1.05998469 1.56412143,0.26752449 2.44531122,0.26752449 C2.58995,0.26752449 2.7290551,0.290804082 2.8622449,0.330493878 C2.59433878,0.160285714 2.28464388,0.0616336735 1.95357755,0.0616336735 C0.941487755,0.0616336735 0.120977551,0.972018367 0.120977551,2.09459082 C0.120977551,3.2175449 0.941487755,4.12773878 1.95357755,4.12773878 C2.41955102,4.12773878 2.84335408,3.93310612 3.16659694,3.61539694 C2.95002041,3.73790102 2.70539388,3.80812143 2.44531122,3.80812143 L2.44531122,3.80812143 Z" id="Shape" fill="#3A3A3A"></path>
                                    <ellipse id="Oval" fill="#C1D0D6" cx="2.44531122" cy="2.03772755" rx="0.894165306" ry="0.991863265"></ellipse>
                                    <path d="M2.27262245,2.03772755 C2.27262245,1.63262449 2.49187041,1.28457551 2.8061449,1.13058673 C2.69566224,1.07658571 2.57392143,1.04586429 2.44531122,1.04586429 C1.95166939,1.04586429 1.55114592,1.49008469 1.55114592,2.03772755 C1.55114592,2.58575204 1.95166939,3.02959082 2.44531122,3.02959082 C2.57392143,3.02959082 2.69566224,2.99925102 2.8061449,2.94505918 C2.49206122,2.79107041 2.27262245,2.44302143 2.27262245,2.03772755 L2.27262245,2.03772755 Z" id="Shape" fill="#C1D0D6"></path>
                                </g>
                                <g id="Group" stroke-width="1" fill="none" transform="translate(54.764286, 42.933673)">
                                    <ellipse id="Oval" fill="#191919" cx="1.97132347" cy="2.09420918" rx="1.8326" ry="2.03314796"></ellipse>
                                    <path d="M2.46324796,3.8077398 C1.58186735,3.8077398 0.86745102,3.01527959 0.86745102,2.03734592 C0.86745102,1.05979388 1.58186735,0.267142857 2.46324796,0.267142857 C2.60769592,0.267142857 2.74699184,0.290422449 2.87999082,0.330303061 C2.61208469,0.159904082 2.3023898,0.0612520408 1.97132347,0.0612520408 C0.959233673,0.0612520408 0.138723469,0.971636735 0.138723469,2.09420918 C0.138723469,3.21716327 0.959233673,4.12735714 1.97132347,4.12735714 C2.43729694,4.12735714 2.8611,3.93291531 3.18434286,3.61520612 C2.96776633,3.73751939 2.7231398,3.8077398 2.46324796,3.8077398 L2.46324796,3.8077398 Z" id="Shape" fill="#3A3A3A"></path>
                                    <ellipse id="Oval" fill="#C1D0D6" cx="2.46324796" cy="2.03734592" rx="0.89397449" ry="0.992054082"></ellipse>
                                    <path d="M2.29036837,2.03734592 C2.29036837,1.63224286 2.50980714,1.28438469 2.82389082,1.13001429 C2.71340816,1.07620408 2.59166735,1.04548265 2.46324796,1.04548265 C1.96941531,1.04548265 1.56908265,1.48970306 1.56908265,2.03734592 C1.56908265,2.58517959 1.96941531,3.0294 2.46324796,3.0294 C2.59166735,3.0294 2.71340816,2.99886939 2.82389082,2.94486837 C2.50980714,2.79087959 2.29036837,2.44283061 2.29036837,2.03734592 L2.29036837,2.03734592 Z" id="Shape" fill="#C1D0D6"></path>
                                </g>
                                <polygon id="Shape" fill="#9B9B9B" points="83.0251378 29.8869888 86.846998 32.0264214 86.846998 34.2372194 84.3656224 35.057348 84.0053612 36.6974143 82.7585673 36.6974143 82.2235184 32.5649051 79.8224765 31.5587306"></polygon>
                                <path d="M155.967922,30.4594378 C154.567521,30.3260571 126.490616,35.1277592 126.490616,35.1277592 C126.263736,35.5817112 126.520956,36.6153633 128.370348,37.2420041 C128.327796,37.2126184 127.778054,36.7418745 134.040264,35.5918245 C140.51409,34.402848 155.641817,31.2646827 157.062063,31.2976939 C157.949168,31.3184929 159.124215,31.661199 159.880993,31.915748 C160.352309,31.7714908 160.622123,31.6810439 160.636244,31.6596724 C160.769624,31.4598878 157.368514,30.5928184 155.967922,30.4594378 L155.967922,30.4594378 Z" id="Shape" fill="#586870"></path>
                            </g>
                        </g>
                        <g id="Group" opacity="0.5" mask="url(#mask-2)" fill="#984E9E">
                            <g transform="translate(131.972449, 131.291837)" id="Shape">
                                <path d=""></path>
                            </g>
                        </g>
                        <path d="M303.122777,184 C301.849391,176.164214 303.122763,170.076573 303.122763,155 C194.528128,162.811907 213.348028,153.815166 208.630194,152.105919 C198.133917,148.303173 94.5044692,160.235688 91.2389129,156.769608 C87.9733565,153.303528 49.1844387,154.463756 45.3957961,155 C11.1078208,159.853117 -11.9814953,152.168407 -20.2525212,152.105919 C-34.387514,151.999129 -14.8776807,154.71233 -3.97118139e-07,187.322853 C23.5832861,239.015273 114.763566,186.584122 132.302953,187.322853 C121.352385,186.744107 309.133946,220.98976 303.122777,184 Z" id="Shape" fill="#3170A6" opacity="0.9" mask="url(#mask-2)"></path>
                        <polygon id="Shape" fill="#609DC6" mask="url(#mask-2)" points="103.029749 150.709597 103.029749 150.709597 100.918748 150.709597 100.918748 150.709597 100.918748 150.709597 100.918748 150.709597 103.029749 150.709597"></polygon>
                        <path d="" id="Shape" fill="#609DC6" mask="url(#mask-2)"></path>
                        <polygon id="Shape" fill="#609DC6" mask="url(#mask-2)" points="167.727551 146.234954 167.727551 146.234954 166.543345 146.234954 166.543345 146.234954 166.543345 146.234954 166.543345 146.234954 167.727551 146.234954"></polygon>
                        <polygon id="Shape" fill="#609DC6" mask="url(#mask-2)" points="78.9683827 150.599878 78.9683827 150.599878 76.0418327 150.599878 76.0418327 150.599878 76.0418327 150.599878 76.0418327 150.599878 78.9683827 150.599878"></polygon>
                    </g>
                </g>
            </g>
        </g>
    </g>
</svg>