<?xml version="1.0" encoding="UTF-8"?>
<svg width="300px" height="187px" viewBox="0 0 300 187" version="1.1" xmlns="http://www.w3.org/2000/svg" xmlns:xlink="http://www.w3.org/1999/xlink">
    <!-- Generator: Sketch 39.1 (31720) - http://www.bohemiancoding.com/sketch -->
    <title>ride</title>
    <desc>Created with Sketch.</desc>
    <defs>
        <rect id="path-1" x="0" y="0" width="300" height="187"></rect>
    </defs>
    <g id="Home_slicing" stroke="none" stroke-width="1" fill="none" fill-rule="evenodd">
        <g id="Artboard" transform="translate(-920.000000, -308.000000)">
            <g id="Header" transform="translate(221.000000, 31.000000)">
                <g id="ride" transform="translate(699.000000, 277.000000)">
                    <g id="Layer_1">
                        <mask id="mask-2" fill="white">
                            <use xlink:href="#path-1"></use>
                        </mask>
                        <use id="Rectangle-path" fill="#DAF4DC" xlink:href="#path-1"></use>
                        <rect id="Rectangle-11" fill="#808080" mask="url(#mask-2)" x="-5" y="155" width="305" height="33"></rect>
                        <path d="M277.851409,147.185512 C277.851409,149.348763 273.946616,151.103286 269.129147,151.103286 L59.30284,151.103286 C54.4859779,151.103286 50.5805779,149.348763 50.5805779,147.185512 L50.5805779,146.608484 C50.5805779,144.443818 54.48618,142.690508 59.30284,142.690508 L269.128945,142.690508 C273.946414,142.690508 277.851207,144.443818 277.851207,146.608484 L277.851207,147.185512 L277.851409,147.185512 Z" id="Shape" mask="url(#mask-2)"></path>
                        <path d="M-12.7477647,139.973469 C1.81584313,139.973468 314,139.973468 314,139.973468 C314,139.973468 299.836179,116.665931 279.349647,105.821255 C259.467409,95.2964651 233.346232,97.242567 226.840838,96.1179921 C213.632327,93.8346623 212.071772,84.4157681 201.538832,75.9717757 C191.606608,68.0093623 180.76627,73.3148029 173.821441,71.8091058 C149.219551,66.4752099 156.695078,77.6099462 150.028588,70.3610765 C143.362097,63.1122069 129.313762,30.2881422 88.7746707,53.642108 C83.4148918,59.3343442 18.9349059,70.7690741 -8.04991469e-08,92.6765655" id="Shape" fill="#AEDDBE" mask="url(#mask-2)"></path>
                        <path d="M158.860016,165.026018 C188.180697,165.026018 211.949806,162.88554 211.949806,160.245127 C211.949806,157.604713 188.180697,155.464235 158.860016,155.464235 C129.539335,155.464235 105.770227,157.604713 105.770227,160.245127 C105.770227,162.88554 129.539335,165.026018 158.860016,165.026018 Z" id="Oval" fill="#747474" mask="url(#mask-2)"></path>
                        <g id="Group" mask="url(#mask-2)">
                            <g transform="translate(178.512143, 118.697959)" id="Shape">
                                <path d="M17.6199843,28.2119694 C16.8946957,28.2119694 16.3066621,27.615949 16.3066621,26.8807224 L16.3066621,16.3240898 C16.3066621,15.5888633 16.8946957,14.9928429 17.6199843,14.9928429 C18.345475,14.9928429 18.9335086,15.5888633 18.9335086,16.3240898 L18.9335086,26.8807224 C18.9335086,27.615949 18.345475,28.2119694 17.6199843,28.2119694 L17.6199843,28.2119694 Z" fill="#000000"></path>
                                <path d="M17.6205907,21.2500469 C13.6585907,21.2500469 10.4475514,17.9945633 10.4475514,13.9800122 C10.4475514,9.96546122 13.6587929,6.71017959 17.6205907,6.71017959 C21.5813779,6.71017959 24.792215,9.96546122 24.792215,13.9800122 C24.792215,17.9945633 21.5811757,21.2500469 17.6205907,21.2500469 Z" fill="#B8E986"></path>
                                <path d="M9.48575571,28.1065041 C8.76046714,28.1065041 8.17243357,27.5104837 8.17243357,26.7752571 L8.17243357,12.8627265 C8.17243357,12.1275 8.76046714,11.5314796 9.48575571,11.5314796 C10.2112464,11.5314796 10.79928,12.1275 10.79928,12.8627265 L10.79928,26.7752571 C10.79928,27.5104837 10.2112464,28.1065041 9.48575571,28.1065041 L9.48575571,28.1065041 Z" fill="#000000"></path>
                                <path d="M18.9385621,9.77311837 C18.9385621,15.0637592 14.7064993,19.354702 9.48636214,19.354702 C4.26481,19.354702 0.0333535714,15.0637592 0.0333535714,9.77311837 C0.0333535714,4.48247755 4.26481,0.191534694 9.48636214,0.191534694 C14.7067014,0.191534694 18.9385621,4.48267959 18.9385621,9.77311837 L18.9385621,9.77311837 Z" fill="#B8E986"></path>
                                <path d="M17.6970007,6.71401837 C17.6713286,6.71401837 17.646465,6.70997755 17.6207929,6.70997755 C13.6587929,6.70997755 10.4477536,9.96525918 10.4477536,13.9798102 C10.4477536,17.9943612 13.658995,21.2498449 17.6207929,21.2498449 C17.646465,21.2498449 17.6713286,21.2458041 17.6970007,21.2458041 L17.6970007,6.71401837 L17.6970007,6.71401837 Z" fill="#7ED321"></path>
                                <path d="M9.37862,0.196989796 C4.20841214,0.255985714 0.0335557143,4.51965306 0.0335557143,9.77311837 C0.0335557143,15.0265837 4.20841214,19.290049 9.37862,19.3492469 L9.37862,0.196989796 L9.37862,0.196989796 Z" fill="#7ED321"></path>
                            </g>
                        </g>
                        <path d="M107.279224,131.824753 L107.279224,146.08641 L106.298022,146.08641 L106.298022,149.941753 L107.402329,149.941753 L107.402329,151.103286 L122.944891,151.103286 C122.944891,151.103286 123.451461,143.14308 131.427411,143.14308 C139.403362,143.14308 139.551331,151.103286 139.551331,151.103286 L183.399957,151.103286 C183.399957,151.103286 183.765431,143.267335 191.836187,143.267335 C198.953233,143.267335 200.292227,151.103286 200.292227,151.103286 L210.231187,151.103286 L210.231187,149.61081 L211.950008,149.61081 L211.950008,147.122678 L209.494983,147.122678 L209.494983,141.650604 C209.494983,141.650604 209.843881,131.201861 185.506286,131.201861 L182.561671,131.201861 L174.768457,119.883535 C174.768457,119.883535 172.682949,117.147498 160.412271,117.147498 L115.991985,117.147498 L107.279224,131.824753 Z" id="Shape" fill="#EA5D6E" mask="url(#mask-2)"></path>
                        <ellipse id="Oval" fill="#000000" mask="url(#mask-2)" cx="131.427411" cy="151.625965" rx="8.69659" ry="8.81524286"></ellipse>
                        <ellipse id="Oval" fill="#000000" mask="url(#mask-2)" cx="191.636672" cy="151.625965" rx="8.69659" ry="8.81524286"></ellipse>
                        <path d="M195.916239,151.625965 C195.916239,154.020755 194.000126,155.963782 191.636672,155.963782 C189.273622,155.963782 187.357308,154.020755 187.357308,151.625965 C187.357308,149.231176 189.27342,147.287543 191.636672,147.287543 C193.999924,147.287543 195.916239,149.231176 195.916239,151.625965 L195.916239,151.625965 Z" id="Shape" fill="#FFFFFF" mask="url(#mask-2)"></path>
                        <path d="M135.706776,151.625965 C135.706776,154.020755 133.790664,155.963782 131.427411,155.963782 C129.064159,155.963782 127.148047,154.020755 127.148047,151.625965 C127.148047,149.231176 129.064159,147.287543 131.427411,147.287543 C133.790664,147.287543 135.706776,149.231176 135.706776,151.625965 L135.706776,151.625965 Z" id="Shape" fill="#FFFFFF" mask="url(#mask-2)"></path>
                        <path d="M114.68311,119.510365 L134.316437,119.510365 C135.396486,119.510365 136.280053,120.406012 136.280053,121.500871 L136.280053,129.212163 C136.280053,130.306012 135.396284,131.201861 134.316437,131.201861 L107.648539,131.201861" id="Shape" fill="#E6E7E8" mask="url(#mask-2)"></path>
                        <path d="M182.561671,131.201861 L161.761777,131.201861 C160.681728,131.201861 159.798566,130.306012 159.798566,129.212163 L159.798566,121.500871 C159.798566,120.406012 160.681728,119.510365 161.761777,119.510365 L174.331222,119.510365 C174.331222,119.510365 174.58006,119.609769 174.925118,120.111033" id="Shape" fill="#E6E7E8" mask="url(#mask-2)"></path>
                        <path d="M146.177978,135.804149 C146.177978,136.078318 145.956834,136.301978 145.686771,136.301978 L140.041931,136.301978 C139.772475,136.301978 139.551331,136.07852 139.551331,135.804149 L139.551331,135.183278 C139.551331,134.908502 139.772475,134.684843 140.041931,134.684843 L145.686771,134.684843 C145.956631,134.684843 146.177978,134.9083 146.177978,135.183278 L146.177978,135.804149 L146.177978,135.804149 Z" id="Shape" fill="#000000" mask="url(#mask-2)"></path>
                        <path d="M167.529519,135.804149 C167.529519,136.078318 167.308173,136.301978 167.038312,136.301978 L161.393473,136.301978 C161.124219,136.301978 160.902872,136.07852 160.902872,135.804149 L160.902872,135.183278 C160.902872,134.908502 161.124219,134.684843 161.393473,134.684843 L167.038312,134.684843 C167.308173,134.684843 167.529519,134.9083 167.529519,135.183278 L167.529519,135.804149 L167.529519,135.804149 Z" id="Shape" fill="#000000" mask="url(#mask-2)"></path>
                        <path d="M138.538797,121.500871 C138.538797,120.406012 139.422566,119.510365 140.502413,119.510365 L155.830906,119.510365 C156.910955,119.510365 157.794521,120.406012 157.794521,121.500871 L157.794521,129.212163 C157.794521,130.306012 156.910753,131.201861 155.830906,131.201861 L140.502413,131.201861 C139.422566,131.201861 138.538797,130.306012 138.538797,129.212163 L138.538797,121.500871 L138.538797,121.500871 Z" id="Shape" fill="#E6E7E8" mask="url(#mask-2)"></path>
                        <path d="M136.280255,121.500871 C136.280255,120.406012 135.396486,119.510365 134.316639,119.510365 L114.683312,119.510365 L107.648943,131.201659 L119.959241,131.201659" id="Shape" fill="#FFFFFF" mask="url(#mask-2)"></path>
                        <path d="M161.761777,131.201861 C160.681728,131.201861 159.798566,130.306012 159.798566,129.212163 L159.798566,121.500871 C159.798566,120.406012 160.681728,119.510365 161.761777,119.510365 L174.331222,119.510365 C174.331222,119.510365 174.58006,119.609769 174.925118,120.111033" id="Shape" fill="#FFFFFF" mask="url(#mask-2)"></path>
                        <path d="M140.502413,131.201861 C139.422566,131.201861 138.538797,130.306012 138.538797,129.212163 L138.538797,121.500871 C138.538797,120.406012 139.422566,119.510365 140.502413,119.510365 L155.830906,119.510365 C156.910955,119.510365 157.794521,120.406012 157.794521,121.500871" id="Shape" fill="#FFFFFF" mask="url(#mask-2)"></path>
                        <g id="Group" mask="url(#mask-2)" fill="#000000">
                            <g transform="translate(140.145000, 145.973469)" id="Shape">
                                <path d="M71.8050079,0.112940816 L60.5577793,0.112940816 C61.1836136,1.27588776 61.6056879,2.56430204 61.8070221,3.92666327 L71.8050079,3.92666327 L71.8050079,0.112940816 L71.8050079,0.112940816 Z"></path>
                                <path d="M42.4166707,0.112940816 L0.348518571,0.112940816 C0.975161429,1.27588776 1.39642714,2.56430204 1.59776143,3.92666327 L41.1763221,3.92666327 C41.3596657,2.68451633 41.7328214,1.50783061 42.2729471,0.428932653 L42.4166707,0.112940816 L42.4166707,0.112940816 Z"></path>
                            </g>
                        </g>
                        <path d="M209.505899,141.156412 C209.492557,141.156412 209.478205,141.152371 209.464864,141.152371 L207.581499,141.152371 C206.770704,141.152371 205.921704,141.796478 205.692676,142.585245 L205.297082,143.94902 C205.068661,144.736576 205.544101,145.381692 206.354087,145.381692 L209.465066,145.381692 C209.478407,145.381692 209.492759,145.377651 209.506101,145.377651 L209.506101,141.156412 L209.505899,141.156412 Z" id="Shape" fill="#FFE28F" mask="url(#mask-2)"></path>
                        <path d="M114.840175,143.94902 L114.443773,142.585245 C114.215554,141.79668 113.365745,141.152371 112.555759,141.152371 L107.402329,141.152371 C107.374029,141.152371 107.34775,141.158837 107.320259,141.160251 L107.320259,145.37361 C107.347952,145.374216 107.374231,145.38149 107.402329,145.38149 L113.782564,145.38149 C114.592752,145.381692 115.068596,144.736778 114.840175,143.94902 L114.840175,143.94902 Z" id="Shape" fill="#D0011B" mask="url(#mask-2)"></path>
                        <path d="M283.093133,142.339365 C282.367844,142.339365 281.779811,141.743143 281.779811,141.007916 L281.779811,127.290153 C281.779811,126.554927 282.367844,125.958906 283.093133,125.958906 C283.818421,125.958906 284.406455,126.554927 284.406455,127.290153 L284.406455,141.007916 C284.406455,141.742941 283.818421,142.339365 283.093133,142.339365 L283.093133,142.339365 Z" id="Shape" fill="#000000" mask="url(#mask-2)"></path>
                        <path d="M42.1858157,142.909929 C41.4605271,142.909929 40.8724936,142.313908 40.8724936,141.578682 L40.8724936,131.022049 C40.8724936,130.286822 41.4605271,129.690802 42.1858157,129.690802 C42.9111043,129.690802 43.4991379,130.286822 43.4991379,131.022049 L43.4991379,141.578682 C43.4991379,142.313908 42.9111043,142.909929 42.1858157,142.909929 L42.1858157,142.909929 Z" id="Shape" fill="#000000" mask="url(#mask-2)"></path>
                        <path d="M49.3580464,128.677971 C49.3580464,132.692522 46.1470071,135.948006 42.18622,135.948006 C38.22422,135.948006 35.0133829,132.692522 35.0133829,128.677971 C35.0133829,124.66342 38.2244221,121.408139 42.18622,121.408139 C46.1470071,121.408139 49.3580464,124.66342 49.3580464,128.677971 L49.3580464,128.677971 Z" id="Shape" fill="#B8E986" mask="url(#mask-2)"></path>
                        <path d="M274.789535,136.675654 C274.789535,136.675654 291.558563,136.679493 291.658017,136.675654 L283.388868,117.811506 C283.289414,117.80888 274.789535,136.675654 274.789535,136.675654 Z" id="Shape" fill="#7ED321" mask="url(#mask-2)"></path>
                        <path d="M42.4184821,121.419857 C42.3402529,121.417231 42.2644493,121.408139 42.18622,121.408139 C38.22422,121.408139 35.0133829,124.66342 35.0133829,128.677971 C35.0133829,132.692522 38.2244221,135.948006 42.18622,135.948006 C42.2644493,135.948006 42.3402529,135.938712 42.4184821,135.936086 L42.4184821,121.419857 L42.4184821,121.419857 Z" id="Shape" fill="#7ED321" mask="url(#mask-2)"></path>
                        <path d="M229.450324,48.3722082 C228.671265,48.0790469 227.896451,47.8151816 227.11335,47.6317286 C226.336111,47.4379714 225.547956,47.3286673 224.80407,47.3547306 C224.432734,47.3729143 224.077366,47.440598 223.752927,47.5458612 C223.590606,47.6006143 223.43435,47.6640551 223.294265,47.752549 C223.148116,47.8299306 223.020564,47.9333755 222.898065,48.0386388 C222.777386,48.1491551 222.665196,48.267349 222.560689,48.3974633 C222.465075,48.5352551 222.359961,48.6653694 222.286179,48.8257898 C222.200268,48.9746939 222.133561,49.1411755 222.069481,49.3088694 C222.001561,49.4739367 221.963154,49.6592082 221.906554,49.8321551 L221.898873,49.8549857 C221.784864,50.2059306 221.410294,50.3970612 221.063821,50.2800796 C220.859859,50.2117898 220.709262,50.0485408 220.644576,49.856198 C220.529153,49.5038388 220.410495,49.1508735 220.230184,48.8500347 C220.063618,48.5374776 219.849346,48.2701776 219.60253,48.0503571 C219.12143,47.5901082 218.45072,47.3710959 217.712494,47.3209898 C217.344392,47.2951286 216.963555,47.3236163 216.578069,47.3678633 C216.191369,47.4106959 215.803457,47.4927245 215.416758,47.5933408 C215.026016,47.6850673 214.640731,47.8085143 214.252617,47.9372143 C213.866726,48.0705612 213.478612,48.2107776 213.094541,48.3720061 C213.717343,47.8071 214.43495,47.3573571 215.198039,46.9783286 C215.966991,46.6162714 216.802043,46.3354347 217.710069,46.2820959 C217.935862,46.2657306 218.166709,46.2717918 218.399376,46.2859347 C218.632244,46.3081592 218.865113,46.3536184 219.097779,46.416049 C219.327414,46.4863592 219.557452,46.5681857 219.776171,46.6825408 C219.993474,46.7930571 220.208554,46.9235755 220.397558,47.0809653 C220.598892,47.227849 220.758585,47.4151408 220.925353,47.5951592 C221.068874,47.7887143 221.224322,47.9800469 221.335703,48.1891592 C221.588381,48.5974837 221.751309,49.0328816 221.900086,49.4672694 L220.637906,49.4907061 C220.712294,49.2702796 220.767681,49.0474286 220.861071,48.8302347 C220.950014,48.6118286 221.045021,48.3948367 221.170148,48.1861286 C221.279103,47.9729755 221.434349,47.7759857 221.582519,47.5816224 C221.742212,47.3919061 221.915853,47.2131 222.117389,47.0615694 C222.316702,46.9126653 222.527739,46.7748735 222.752926,46.673651 C222.97306,46.5617204 223.207141,46.4857531 223.438595,46.4271612 C223.903726,46.3055327 224.374314,46.282298 224.823274,46.3198776 C225.723618,46.3881673 226.55301,46.6657714 227.324387,47.0181306 C228.090306,47.3872592 228.813574,47.8236673 229.450324,48.3722082 L229.450324,48.3722082 Z" id="Shape" fill="#FFFFFF" mask="url(#mask-2)"></path>
                        <path d="M136.687167,69.8705612 C137.466226,69.5774 138.240433,69.3135347 139.024141,69.1300816 C139.80138,68.9363245 140.588929,68.8270204 141.332814,68.8530837 C141.704757,68.8712673 142.060124,68.938749 142.384564,69.0442143 C142.546076,69.0987653 142.702534,69.1624082 142.842417,69.250902 C142.988566,69.3282837 143.116927,69.4317286 143.239426,69.5369918 C143.359296,69.6475082 143.472092,69.7659041 143.576196,69.8958163 C143.672416,70.0336082 143.77753,70.1635204 143.850706,70.3241429 C143.937223,70.4730469 144.003324,70.6393265 144.067403,70.8070204 C144.135323,70.9720878 144.17373,71.1573592 144.23033,71.3303061 L144.238011,71.3529347 C144.352829,71.7038796 144.726591,71.8952122 145.072861,71.7780286 C145.27743,71.7097388 145.428229,71.5464898 145.492308,71.3541469 C145.608338,71.0017878 145.726996,70.6488224 145.906499,70.3479837 C146.073873,70.0352245 146.287336,69.7681265 146.534961,69.5483061 C147.015859,69.0880571 147.686771,68.8690449 148.42439,68.8189388 C148.792492,68.7928755 149.173329,68.8215653 149.559422,68.8656102 C149.945515,68.9084429 150.334034,68.9904714 150.720126,69.0912898 C151.111273,69.1830163 151.496153,69.3064633 151.884671,69.4351633 C152.270764,69.5685102 152.65807,69.7087265 153.042748,69.8701571 C152.419541,69.305251 151.702541,68.8555082 150.939249,68.4764796 C150.170298,68.1144224 149.334639,67.8335857 148.42722,67.7802469 C148.20082,67.7638816 147.969973,67.7697408 147.737711,67.7840857 C147.504236,67.8061082 147.272176,67.8515673 147.039307,67.9142 C146.809066,67.9845102 146.579432,68.0663367 146.360916,68.1806918 C146.14341,68.2912082 145.927926,68.4217265 145.739529,68.5791163 C145.538194,68.726 145.377693,68.9130898 145.211127,69.0933102 C145.067606,69.2868653 144.912158,69.4779959 144.800777,69.6873102 C144.548099,70.0956347 144.385171,70.5310327 144.237001,70.9652184 L145.498574,70.9886551 C145.424186,70.7684306 145.369001,70.5453776 145.275409,70.3281837 C145.18687,70.1097776 145.092065,69.8925837 144.966332,69.6840776 C144.857984,69.4709245 144.702738,69.2739347 144.554567,69.0795714 C144.394268,68.8898551 144.221031,68.711049 144.019697,68.5595184 C143.819576,68.4106143 143.609347,68.2728224 143.383554,68.171398 C143.164229,68.0596694 142.929339,67.9835 142.698694,67.9251102 C142.232956,67.8034816 141.762974,67.7802469 141.314015,67.8178265 C140.413671,67.8861163 139.584279,68.1635184 138.812295,68.5158776 C138.047386,68.8858143 137.323311,69.3218184 136.687167,69.8705612 L136.687167,69.8705612 Z" id="Shape" fill="#FFFFFF" mask="url(#mask-2)"></path>
                        <path d="M88.2222057,62.7997408 C87.4423386,62.5065796 86.6677271,62.2427143 85.8852321,62.0592612 C85.1079929,61.8655041 84.3192314,61.756402 83.5759521,61.7822633 C83.2046157,61.8004469 82.8494507,61.8681306 82.5248093,61.9733939 C82.3624886,62.0281469 82.2054236,62.0915878 82.0657429,62.1800816 C81.9202,62.2574633 81.7924457,62.3607061 81.6695429,62.4661714 C81.5488636,62.5766878 81.4374829,62.6948816 81.3321664,62.8249959 C81.2371593,62.9627878 81.132045,63.092902 81.0576564,63.2533224 C80.9717457,63.4022265 80.9050386,63.5687082 80.8415657,63.736402 C80.7728371,63.9014694 80.7350364,64.0867408 80.6780321,64.2596878 L80.6709571,64.2825184 C80.55614,64.6334633 80.1823779,64.8245939 79.8352986,64.7076122 C79.6313364,64.6393224 79.4813464,64.4760735 79.4166607,64.2837306 C79.3006307,63.9313714 79.1825793,63.5784061 79.0016614,63.2775673 C78.8348936,62.9650102 78.6206221,62.6977102 78.3744121,62.4778898 C77.8935143,62.0176408 77.2226021,61.7986286 76.4845786,61.7485224 C76.11587,61.7226612 75.7354371,61.751149 75.3501529,61.7953959 C74.9634536,61.8382286 74.5753393,61.9202571 74.1880336,62.0208735 C73.7981,62.1126 73.4120071,62.2360469 73.0247014,62.3647469 C72.6386086,62.4980939 72.2498879,62.6383102 71.866625,62.7995388 C72.4894271,62.2346327 73.2068321,61.7848898 73.9701236,61.4058612 C74.7384686,61.0438041 75.5733186,60.7629673 76.4813443,60.7096286 C76.7071379,60.6932633 76.937985,60.6993245 77.17146,60.7136694 C77.4041264,60.7356918 77.636995,60.781151 77.8692571,60.8435816 C78.0994979,60.9138918 78.3297386,60.9957184 78.5476486,61.1100735 C78.7657607,61.2205898 78.97983,61.3511082 79.1696421,61.508498 C79.3709764,61.6553816 79.5300629,61.8426735 79.6968307,62.0226918 C79.8403521,62.216449 79.9958,62.4075796 80.1079893,62.6166918 C80.3600614,63.0250163 80.5227864,63.4604143 80.6717657,63.894802 L79.4095857,63.9182388 C79.4839743,63.6978122 79.5391593,63.4749612 79.6333579,63.2577673 C79.7225029,63.0393612 79.8173079,62.8223694 79.9418279,62.6136612 C80.0507829,62.4005082 80.2060286,62.2035184 80.3548057,62.0091551 C80.5144986,61.8194388 80.6883414,61.6406327 80.8896757,61.489102 C81.0891907,61.340198 81.3000257,61.2026082 81.5246064,61.1011837 C81.7451443,60.9892531 81.9794279,60.9132857 82.2108814,60.8546939 C82.6752036,60.7330653 83.1457921,60.7098306 83.5949536,60.7474102 C84.4952979,60.8157 85.3250943,61.0933041 86.0960671,61.4456633 C86.86138,61.8147918 87.5848493,62.250998 88.2222057,62.7997408 L88.2222057,62.7997408 Z" id="Shape" fill="#FFFFFF" mask="url(#mask-2)"></path>
                        <path d="M155.634625,62.1346224 C155.077924,61.9253082 154.524456,61.7368041 153.965329,61.6060837 C153.410043,61.4676857 152.847681,61.389698 152.315844,61.4084878 C152.051036,61.4214184 151.797145,61.4697061 151.564883,61.5450673 C151.449459,61.5840612 151.33727,61.6295204 151.237816,61.6925571 C151.133308,61.7477143 151.041535,61.8212571 150.954411,61.8966184 C150.868501,61.9752122 150.788452,62.0598673 150.713457,62.1528061 C150.645537,62.250998 150.57034,62.3445429 150.517783,62.458898 C150.455523,62.5655755 150.408626,62.6837694 150.363144,62.8033776 C150.314427,62.9217735 150.286936,63.0543122 150.246507,63.1779612 L150.241454,63.1935184 C150.159384,63.4444531 149.892555,63.5808306 149.64493,63.4977918 C149.498781,63.4491 149.391039,63.3319163 149.344748,63.1947306 C149.262678,62.9431898 149.17798,62.6910429 149.049215,62.4758694 C148.929951,62.2528163 148.776726,62.0616857 148.600862,61.9051041 C148.257219,61.5761816 147.778141,61.4202061 147.250952,61.3838388 C146.988166,61.3656551 146.716082,61.3858592 146.440359,61.4175796 C146.164636,61.4486939 145.886892,61.5064776 145.611169,61.5788082 C145.332212,61.6438653 145.057096,61.7321571 144.779958,61.8244898 C144.504235,61.919449 144.227299,62.0194592 143.952789,62.1346224 C144.397908,61.731551 144.909531,61.409902 145.454711,61.1393694 C146.003529,60.8807571 146.600052,60.6805347 147.248931,60.6421469 C147.410443,60.6304286 147.574785,60.6348735 147.741553,60.6447735 C147.908321,60.6611388 148.073876,60.6934653 148.239835,60.7377122 C148.404581,60.7878184 148.568721,60.8464102 148.724574,60.9282367 C148.880426,61.0068306 149.033044,61.1005776 149.169086,61.2129122 C149.312607,61.3175694 149.426818,61.4515224 149.545476,61.5802224 C149.648164,61.7186204 149.759141,61.8552 149.838583,62.0047102 C150.019501,62.295851 150.135531,62.607398 150.241454,62.9175306 L149.340301,62.9336939 C149.393464,62.7765061 149.433286,62.6179041 149.499994,62.4623327 C149.563466,62.3063571 149.63078,62.1509878 149.720531,62.0020837 C149.798154,61.8499469 149.909131,61.7089224 150.014851,61.5705245 C150.129669,61.4347531 150.252774,61.3072653 150.397104,61.1993755 C150.540221,61.092698 150.690211,60.9939 150.85051,60.9217714 C151.008181,60.8417633 151.175556,60.7872122 151.340504,60.7455918 C151.672827,60.6591184 152.008789,60.642349 152.329387,60.6690184 C152.971999,60.7185184 153.56448,60.9161143 154.115926,61.1682612 C154.66252,61.4313184 155.179399,61.7426633 155.634625,62.1346224 L155.634625,62.1346224 Z" id="Shape" fill="#FFFFFF" mask="url(#mask-2)"></path>
                        <path d="M58.4890129,44.8853878 C59.0455121,44.6760735 59.5983729,44.4875694 60.1577021,44.356849 C60.7129886,44.218451 61.2761586,44.1404633 61.8071879,44.1592531 C62.0726014,44.1721837 62.326695,44.2202694 62.5581486,44.2958327 C62.6735721,44.3348265 62.7857614,44.3802857 62.8858221,44.4433224 C62.9897236,44.4984796 63.08089,44.5720224 63.16862,44.6473837 C63.2545307,44.7261796 63.3345793,44.8106327 63.4089679,44.9035714 C63.4774943,45.0017633 63.5526914,45.0953082 63.6052486,45.2098653 C63.6669021,45.3165429 63.7144057,45.4347367 63.7604943,45.5543449 C63.8092107,45.6725388 63.8360957,45.8052796 63.8765243,45.9287265 L63.8821843,45.9444857 C63.9636479,46.1954204 64.2310829,46.331798 64.4787079,46.2485571 C64.6242507,46.1998653 64.7313864,46.0828837 64.777475,45.945698 C64.86096,45.6941571 64.9456579,45.4418082 65.0738164,45.2266347 C65.1930807,45.0035816 65.3456986,44.8126531 65.5227757,44.6558694 C65.8658121,44.3269469 66.3448907,44.1709714 66.8720793,44.1346041 C67.1350671,44.1164204 67.4069493,44.1364224 67.6826721,44.1683449 C67.958395,44.1988531 68.2355329,44.2574449 68.5118621,44.3295735 C68.7908193,44.3946306 69.0665421,44.4829224 69.34368,44.5752551 C69.6194029,44.6702143 69.8965407,44.7702245 70.1710507,44.8853878 C69.7259321,44.4823163 69.2135,44.1606673 68.6685229,43.8901347 C68.1195029,43.6315224 67.522575,43.4313 66.8747071,43.3929122 C66.7129929,43.3811939 66.54764,43.3858408 66.382085,43.3955388 C66.2153171,43.411702 66.0493579,43.4442306 65.8831964,43.4884776 C65.7190564,43.5385837 65.5547143,43.5969735 65.3984579,43.679002 C65.2432121,43.7575959 65.0893814,43.8513429 64.9547543,43.9636776 C64.8110307,44.0683347 64.6970221,44.2022878 64.5775557,44.3307857 C64.4750693,44.4693857 64.3640929,44.6057633 64.2838421,44.7552735 C64.1041371,45.0464143 63.9875007,45.3577592 63.8809714,45.6678918 L64.7825286,45.6842571 C64.729365,45.5268673 64.6901493,45.3684673 64.6228357,45.2128959 C64.5593629,45.0569204 64.4914429,44.901551 64.4022979,44.7526469 C64.324675,44.6005102 64.2136986,44.4594857 64.1077757,44.3210878 C63.9937671,44.1853163 63.8692471,44.0578286 63.7255236,43.9499388 C63.5830129,43.8434633 63.4324164,43.7444633 63.2715107,43.6723347 C63.1150521,43.5923265 62.9470714,43.5377755 62.7821229,43.4961551 C62.4500021,43.4096816 62.1138386,43.3927102 61.79324,43.4195816 C61.1500214,43.4688796 60.5575407,43.6664755 60.0067014,43.9188245 C59.4605114,44.1820837 58.9436321,44.4934286 58.4890129,44.8853878 L58.4890129,44.8853878 Z" id="Shape" fill="#FFFFFF" mask="url(#mask-2)"></path>
                        <path d="M258.992694,65.8269184 C258.435992,65.6176041 257.882525,65.4291 257.323398,65.2985816 C256.767909,65.1599816 256.205548,65.0819939 255.673912,65.1007837 C255.408903,65.1137143 255.155214,65.162002 254.923558,65.2373633 C254.808134,65.2763571 254.695136,65.3218163 254.595884,65.3848531 C254.491376,65.4400102 254.40021,65.5135531 254.313086,65.5889143 C254.227176,65.6675082 254.146521,65.7521633 254.072132,65.845102 C254.00401,65.9432939 253.928409,66.0368388 253.875851,66.1511939 C253.814198,66.2578714 253.766694,66.3760653 253.721212,66.4958755 C253.672496,66.6140694 253.644802,66.7468102 253.605182,66.8702571 L253.599522,66.8858143 C253.518059,67.136749 253.250421,67.2731265 253.002999,67.1900878 C252.857456,67.1413959 252.749714,67.0244143 252.703625,66.8870265 C252.620949,66.6354857 252.536251,66.3833388 252.407284,66.1681653 C252.288019,65.9451122 252.135401,65.7539816 251.958931,65.5974 C251.615894,65.2684776 251.136209,65.112502 250.609021,65.0761347 C250.346033,65.057951 250.074151,65.0781551 249.798428,65.1098755 C249.522705,65.1403837 249.245769,65.1987735 248.969642,65.2711041 C248.690079,65.3361612 248.414962,65.4244531 248.138026,65.5167857 C247.862304,65.6117449 247.585368,65.7117551 247.310656,65.8269184 C247.755774,65.4238469 248.268004,65.102198 248.813386,64.8316653 C249.362406,64.5730531 249.958727,64.3728306 250.606999,64.3344429 C250.768714,64.3227245 250.93346,64.3271694 251.099621,64.3370694 C251.266389,64.3534347 251.432349,64.3857612 251.598106,64.4300082 C251.76265,64.4801143 251.926992,64.5387061 252.082844,64.6205327 C252.238696,64.6991265 252.391719,64.7928735 252.527154,64.9052082 C252.670676,65.0098653 252.784886,65.1438184 252.903544,65.2725184 C253.006233,65.4109163 253.117816,65.5474959 253.197258,65.6970061 C253.377569,65.9881469 253.493599,66.2994918 253.599926,66.6096245 L252.698167,66.6257878 C252.752139,66.4686 252.791153,66.309998 252.858466,66.1544265 C252.921535,65.998451 252.989253,65.8430816 253.079206,65.6941776 C253.156223,65.5420408 253.267806,65.4010163 253.37292,65.2626184 C253.487535,65.1268469 253.611449,64.9993592 253.755172,64.8914694 C253.898087,64.7847918 254.048886,64.6859939 254.209185,64.6138653 C254.36625,64.5338571 254.533624,64.4793061 254.699179,64.4376857 C255.031502,64.3512122 255.367464,64.3342408 255.688264,64.3609102 C256.330876,64.4104102 256.923155,64.6080061 257.474803,64.8601531 C258.020993,65.1236143 258.537872,65.4349592 258.992694,65.8269184 L258.992694,65.8269184 Z" id="Shape" fill="#FFFFFF" mask="url(#mask-2)"></path>
                        <path d="M231.48004,84.7435959 C230.923339,84.5342816 230.37068,84.3457776 229.811351,84.2150571 C229.256064,84.0764571 228.692894,83.9986714 228.162067,84.0174612 C227.896654,84.0303918 227.64256,84.0784776 227.410298,84.1540408 C227.294874,84.1930347 227.183291,84.2384939 227.083231,84.3015306 C226.979329,84.3566878 226.887759,84.4302306 226.799826,84.5055918 C226.713916,84.5843878 226.634474,84.6688408 226.559479,84.7617796 C226.490952,84.8599714 226.416564,84.9535163 226.363804,85.0680735 C226.301544,85.174549 226.254849,85.2929449 226.208559,85.4125531 C226.159842,85.5307469 226.132957,85.6634878 226.091922,85.7869347 L226.086869,85.8026939 C226.004799,86.0536286 225.73797,86.1900061 225.490547,86.1067653 C225.344196,86.0580735 225.237262,85.9410918 225.191174,85.8039061 C225.108295,85.5523653 225.023799,85.3000163 224.895439,85.0848429 C224.776174,84.8617898 224.622748,84.6708612 224.446479,84.5140776 C224.102836,84.1851551 223.624364,84.0291796 223.097176,83.9926102 C222.834188,83.9744265 222.562306,83.9946306 222.286381,84.026351 C222.01086,84.0568592 221.733116,84.115451 221.456786,84.1875796 C221.178436,84.2526367 220.902713,84.3409286 220.625575,84.4332612 C220.350054,84.5282204 220.072916,84.6282306 219.798406,84.7433939 C220.243323,84.3403224 220.755149,84.0186735 221.300328,83.7481408 C221.849348,83.4893265 222.446276,83.2893061 223.09475,83.2509184 C223.256262,83.2392 223.421009,83.2438469 223.587372,83.2535449 C223.753938,83.2697082 223.919695,83.3022367 224.086261,83.3464837 C224.250401,83.3965898 224.414743,83.4549796 224.570999,83.5368061 C224.726245,83.615602 224.879469,83.7091469 225.014703,83.8214816 C225.158426,83.9261388 225.272435,84.0600918 225.391699,84.1887918 C225.494388,84.3273918 225.604758,84.4637694 225.684806,84.6132796 C225.865118,84.9044204 225.981754,85.2157653 226.087475,85.525898 L225.186524,85.5422633 C225.239081,85.3848735 225.278904,85.2264735 225.345409,85.070902 C225.409488,84.9149265 225.476801,84.7595571 225.566149,84.6106531 C225.644378,84.4585163 225.754748,84.3174918 225.861075,84.1788918 C225.975286,84.0431204 226.099199,83.9156327 226.243529,83.8077429 C226.385838,83.7012673 226.535828,83.6022673 226.696734,83.5301388 C226.853799,83.4501306 227.021779,83.3955796 227.186121,83.3539592 C227.518444,83.2674857 227.854406,83.2505143 228.175206,83.2771837 C228.818425,83.3266837 229.410906,83.5242796 229.961745,83.7764265 C230.507935,84.0400898 231.024814,84.3516367 231.48004,84.7435959 L231.48004,84.7435959 Z" id="Shape" fill="#FFFFFF" mask="url(#mask-2)"></path>
                    </g>
                    <text id="_____" opacity="0.699999988" font-family="HelveticaNeue-Light, Helvetica Neue" font-size="14" font-weight="300" letter-spacing="10" fill="#FFFFFF">
                        <tspan x="16" y="168">____</tspan>
                        <tspan x="84" y="168">_</tspan>
                    </text>
                    <text id="_____-copy" opacity="0.699999988" font-family="HelveticaNeue-Light, Helvetica Neue" font-size="14" font-weight="300" letter-spacing="10" fill="#FFFFFF">
                        <tspan x="101" y="168">____</tspan>
                        <tspan x="169" y="168">_</tspan>
                    </text>
                    <text id="_____-copy-2" opacity="0.699999988" font-family="HelveticaNeue-Light, Helvetica Neue" font-size="14" font-weight="300" letter-spacing="10" fill="#FFFFFF">
                        <tspan x="203" y="168">____</tspan>
                        <tspan x="271" y="168">_</tspan>
                    </text>
                    <text id="_" opacity="0.699999988" font-family="HelveticaNeue-Light, Helvetica Neue" font-size="14" font-weight="300" letter-spacing="10" fill="#FFFFFF">
                        <tspan x="286" y="168">_</tspan>
                    </text>
                    <text id="__" opacity="0.699999988" font-family="HelveticaNeue-Light, Helvetica Neue" font-size="14" font-weight="300" letter-spacing="10" fill="#FFFFFF">
                        <tspan x="186" y="168">__</tspan>
                    </text>
                </g>
            </g>
        </g>
    </g>
</svg>