<?xml version="1.0" encoding="UTF-8"?>
<svg width="301px" height="187px" viewBox="0 0 301 187" version="1.1" xmlns="http://www.w3.org/2000/svg" xmlns:xlink="http://www.w3.org/1999/xlink">
    <!-- Generator: Sketch 39.1 (31720) - http://www.bohemiancoding.com/sketch -->
    <title>stay</title>
    <desc>Created with Sketch.</desc>
    <defs>
        <linearGradient x1="50%" y1="100%" x2="50%" y2="0.000132625995%" id="linearGradient-1">
            <stop stop-color="#FFFFFF" offset="0%"></stop>
            <stop stop-color="#B9E3FF" offset="100%"></stop>
        </linearGradient>
    </defs>
    <g id="Home_slicing" stroke="none" stroke-width="1" fill="none" fill-rule="evenodd">
        <g id="Artboard" transform="translate(-221.000000, -308.000000)">
            <g id="Header" transform="translate(221.000000, 31.000000)">
                <g id="stay" transform="translate(0.000000, 276.999020)">
                    <g id="Layer_1">
                        <g id="Group">
                            <g transform="translate(0.886727, 0.000000)" id="Rectangle-path">
                                <polygon fill="#F8E0DA" points="0 0 300 0 300 187 0 187"></polygon>
                                <rect fill="#8C7561" x="0" y="154.007191" width="300" height="32.5867689"></rect>
                                <rect fill="#F7E0DA" x="0" y="150.155849" width="300" height="4.68434803"></rect>
                            </g>
                        </g>
                        <g id="Group" transform="translate(181.383600, 16.328092)">
                            <g transform="translate(2.646977, 4.888015)">
                                <rect id="Rectangle-path" fill="url(#linearGradient-1)" x="1.62890896" y="1.83300575" width="85.9249479" height="76.7825743"></rect>
                                <path d="M87.5538568,78.6155801 L1.62890896,78.6155801 L1.62890896,57.9523099 C1.62890896,57.9523099 23.8592404,59.6912213 31.2630389,59.3071048 C38.6753892,58.9227846 53.2064788,55.0231667 60.6271772,54.8893573 C67.401606,54.7669532 87.5538568,57.9523099 87.5538568,57.9523099 L87.5538568,78.6155801 L87.5538568,78.6155801 Z" id="Shape" fill="#BCE991"></path>
                                <path d="M89.1827658,80.2449185 L0,80.2449185 L0,0 L89.1827658,0 L89.1827658,80.2449185 L89.1827658,80.2449185 Z M3.25781793,76.9862416 L85.9249479,76.9862416 L85.9249479,3.4623442 L3.25781793,3.4623442 L3.25781793,76.9862416 L3.25781793,76.9862416 Z" id="Shape" fill="#967160"></path>
                            </g>
                            <path d="M94.6803336,88.9305144 C94.6803336,89.8702354 93.9404017,90.6319511 93.0276018,90.6319511 L1.65273176,90.6319511 C0.739931897,90.6319511 0,89.8702354 0,88.9305144 L0,86.673066 C0,85.7333451 0.739931897,84.9292665 1.65273176,84.9292665 L93.0276018,84.9292665 C93.9404017,84.9292665 94.6803336,85.7331414 94.6803336,86.673066 L94.6803336,88.9305144 L94.6803336,88.9305144 Z" id="Shape" fill="#775949"></path>
                            <g id="Shape">
                                <path d="M92.6621154,0.0835035954 C91.8637464,0.0835035954 91.1732926,0.407334612 90.832647,1.42567114 L3.88759486,1.42567114 C3.54694927,0.407334612 2.85649548,0.0835035954 2.05812648,0.0835035954 C0.922573315,0.0835035954 0.00203613621,1.0527563 0.00203613621,2.31080925 C0.00203613621,3.56845487 0.922573315,4.60899113 2.05812648,4.60899113 C2.90230855,4.60899113 3.62696942,4.07334612 3.9435886,3.25867689 L90.7768568,3.25867689 C91.0932724,4.07334612 91.8179333,4.58373639 92.662319,4.58373639 C93.7978721,4.58373639 94.7184093,3.5912656 94.7184093,2.33361999 C94.7184093,1.07597438 93.7976685,0.0835035954 92.6621154,0.0835035954 L92.6621154,0.0835035954 Z" fill="#7C4E3A"></path>
                                <g transform="translate(6.515636, 0.814669)" fill="#F9756E">
                                    <path d="M81.038221,4.48903109 C81.038221,4.9163251 80.745221,5.09168265 80.3591696,5.09168265 L78.6060563,5.09168265 C78.2202085,5.09168265 77.9840167,4.9163251 77.9840167,4.48903109 L77.9840167,0.798986841 C77.9840167,0.371489166 78.2202085,0 78.6060563,0 L80.3591696,0 C80.745221,0 81.038221,0.371489166 81.038221,0.798986841 L81.038221,4.48903109 L81.038221,4.48903109 Z"></path>
                                    <path d="M74.5225851,4.48903109 C74.5225851,4.9163251 74.258091,5.09168265 73.8724468,5.09168265 L72.11913,5.09168265 C71.7332821,5.09168265 71.4685844,4.9163251 71.4685844,4.48903109 L71.4685844,0.798986841 C71.4685844,0.371489166 71.7334858,0 72.11913,0 L73.8724468,0 C74.2582946,0 74.5225851,0.371489166 74.5225851,0.798986841 L74.5225851,4.48903109 L74.5225851,4.48903109 Z"></path>
                                    <path d="M68.0069493,4.48903109 C68.0069493,4.9163251 67.7711647,5.09168265 67.3853169,5.09168265 L65.632,5.09168265 C65.2461522,5.09168265 64.952745,4.9163251 64.952745,4.48903109 L64.952745,0.798986841 C64.952745,0.371489166 65.2461522,0 65.632,0 L67.3853169,0 C67.7711647,0 68.0069493,0.371489166 68.0069493,0.798986841 L68.0069493,4.48903109 L68.0069493,4.48903109 Z"></path>
                                    <path d="M61.694927,4.48903109 C61.694927,4.9163251 61.2840347,5.09168265 60.8983905,5.09168265 L59.1450737,5.09168265 C58.7592259,5.09168265 58.4371091,4.9163251 58.4371091,4.48903109 L58.4371091,0.798986841 C58.4371091,0.371489166 58.7592259,0 59.1450737,0 L60.8983905,0 C61.2842384,0 61.694927,0.371489166 61.694927,0.798986841 L61.694927,4.48903109 L61.694927,4.48903109 Z"></path>
                                    <path d="M55.1792912,4.48903109 C55.1792912,4.9163251 54.7971084,5.09168265 54.4114642,5.09168265 L52.6581473,5.09168265 C52.2725031,5.09168265 51.9216769,4.9163251 51.9216769,4.48903109 L51.9216769,0.798986841 C51.9216769,0.371489166 52.2727067,0 52.6581473,0 L54.4114642,0 C54.797312,0 55.1792912,0.371489166 55.1792912,0.798986841 L55.1792912,4.48903109 L55.1792912,4.48903109 Z"></path>
                                    <path d="M48.6636553,4.48903109 C48.6636553,4.9163251 48.3101821,5.09168265 47.9241306,5.09168265 L46.171221,5.09168265 C45.7853732,5.09168265 45.4058374,4.9163251 45.4058374,4.48903109 L45.4058374,0.798986841 C45.4058374,0.371489166 45.7853732,0 46.171221,0 L47.9241306,0 C48.3101821,0 48.6636553,0.371489166 48.6636553,0.798986841 L48.6636553,4.48903109 L48.6636553,4.48903109 Z"></path>
                                    <path d="M35.6323836,4.48903109 C35.6323836,4.9163251 35.3361258,5.09168265 34.950278,5.09168265 L33.1971647,5.09168265 C32.8113169,5.09168265 32.5781793,4.9163251 32.5781793,4.48903109 L32.5781793,0.798986841 C32.5781793,0.371489166 32.8115205,0 33.1971647,0 L34.950278,0 C35.3361258,0 35.6323836,0.371489166 35.6323836,0.798986841 L35.6323836,4.48903109 L35.6323836,4.48903109 Z"></path>
                                    <path d="M29.1167477,4.48903109 C29.1167477,4.9163251 28.8491994,5.09168265 28.4633516,5.09168265 L26.7102384,5.09168265 C26.3243905,5.09168265 26.0625434,4.9163251 26.0625434,4.48903109 L26.0625434,0.798986841 C26.0625434,0.371489166 26.3243905,0 26.7102384,0 L28.4633516,0 C28.8491994,0 29.1167477,0.371489166 29.1167477,0.798986841 L29.1167477,4.48903109 L29.1167477,4.48903109 Z"></path>
                                    <path d="M22.6011119,4.48903109 C22.6011119,4.9163251 22.3620695,5.09168265 21.9764253,5.09168265 L20.223312,5.09168265 C19.8374642,5.09168265 19.5471112,4.9163251 19.5471112,4.48903109 L19.5471112,0.798986841 C19.5471112,0.371489166 19.8376678,0 20.223312,0 L21.9764253,0 C22.3622731,0 22.6011119,0.371489166 22.6011119,0.798986841 L22.6011119,4.48903109 L22.6011119,4.48903109 Z"></path>
                                    <path d="M16.2890896,4.48903109 C16.2890896,4.9163251 15.8751432,5.09168265 15.4892953,5.09168265 L13.7363857,5.09168265 C13.3505379,5.09168265 13.0312717,4.9163251 13.0312717,4.48903109 L13.0312717,0.798986841 C13.0312717,0.371489166 13.3505379,0 13.7363857,0 L15.4892953,0 C15.8751432,0 16.2890896,0.371489166 16.2890896,0.798986841 L16.2890896,4.48903109 L16.2890896,4.48903109 Z"></path>
                                    <path d="M9.77345379,4.48903109 C9.77345379,4.9163251 9.38821682,5.09168265 9.00257262,5.09168265 L7.24945935,5.09168265 C6.86340792,5.09168265 6.51563586,4.9163251 6.51563586,4.48903109 L6.51563586,0.798986841 C6.51563586,0.371489166 6.86340792,0 7.24945935,0 L9.00257262,0 C9.38842043,0 9.77345379,0.371489166 9.77345379,0.798986841 L9.77345379,4.48903109 L9.77345379,4.48903109 Z"></path>
                                    <path d="M3.25781793,4.48903109 C3.25781793,4.9163251 2.90108687,5.09168265 2.51544267,5.09168265 L0.762329395,5.09168265 C0.376481584,5.09168265 0,4.9163251 0,4.48903109 L0,0.798986841 C0,0.371489166 0.376685198,0 0.762329395,0 L2.51544267,0 C2.90108687,0 3.25781793,0.371489166 3.25781793,0.798986841 L3.25781793,4.48903109 L3.25781793,4.48903109 Z"></path>
                                </g>
                                <g transform="translate(3.461432, 5.295350)">
                                    <path d="M1.00055733,78.3047837 L2.32282418,0.881064765 C2.32282418,0.881064765 36.3672252,-0.763345062 39.6726887,0.8814721 C42.9779486,2.52649293 34.5220785,32.2484775 27.9942259,38.4880291 C23.5668513,42.7194211 13.5608707,52.7255958 13.5608707,52.7255958 L13.8331022,56.4606505 C13.8331022,56.4606505 14.9383169,69.3998381 15.8745323,73.3703323 C16.811155,77.3408264 16.7007964,80.2333095 17.8027533,81.0842315 C18.9045066,81.9349498 10.0904802,83.9202987 8.43774844,83.9202987 C6.78501668,83.9202987 2.92877832,80.8007266 1.00076095,83.9202987 C-0.927460042,87.0394635 1.00055733,78.3047837 1.00055733,78.3047837 L1.00055733,78.3047837 Z" fill="#FF9388"></path>
                                    <path d="M4.45241904,50.3479837 C4.45241904,50.3479837 10.2205893,7.96950168 8.04864281,1.59654801 C5.8764927,-4.77640566 4.01403892,50.2789405 4.01403892,50.2789405" fill="#000000" opacity="0.03"></path>
                                    <path d="M7.66381306,50.0777172 C7.66381306,50.0777172 16.9986831,8.37846563 15.3744573,1.83483876 C13.750435,-4.70878811 7.23317026,49.9695698 7.23317026,49.9695698" fill="#000000" opacity="0.03"></path>
                                    <path d="M11.2834524,49.5434978 C11.2834524,49.5434978 24.5963218,9.00576093 23.6118499,2.32852831 C22.627378,-4.34890798 10.86523,49.3919693 10.86523,49.3919693" fill="#000000" opacity="0.03"></path>
                                    <polygon fill="#F9756E" points="1.42529534 55.6730691 5.50998819 56.3539289 10.2472627 56.4643165 13.7380146 55.6730691 13.5665719 52.4400542 9.10152884 52.9504445 5.17606185 53.0298748 1.42529534 52.4400542"></polygon>
                                    <path d="M13.9803148,50.6652973 C13.9803148,50.6652973 22.0523732,30.574536 22.9303551,26.5879521 C24.1111105,21.227225 29.264164,1.66355455 30.0902245,1.69451198 C31.0830445,1.73157943 25.9931112,25.393647 25.0731849,27.411379 C24.1536657,29.4293147 13.9803148,50.6652973 13.9803148,50.6652973 L13.9803148,50.6652973 Z" fill="#000000" opacity="0.03"></path>
                                    <path d="M20.9086755,44.5224877 C20.9086755,44.5224877 28.8500139,28.148451 29.7023405,24.8944585 C30.8484816,20.5188701 35.8748874,4.55603763 36.7009479,4.58699506 C37.6935643,4.62426618 32.7567484,23.9386478 31.850057,25.582243 C30.9433655,27.2258381 20.9086755,44.5224877 20.9086755,44.5224877 L20.9086755,44.5224877 Z" fill="#000000" opacity="0.03"></path>
                                    <path d="M3.64875608,56.8714475 C3.64875608,56.8714475 1.40432314,77.7689351 3.19388325,80.7823965 C4.98364698,83.795858 3.95865601,56.8865189 3.95865601,56.8865189" fill="#000000" opacity="0.03"></path>
                                    <path d="M6.90738846,56.8804088 C6.90738846,56.8804088 6.21184434,79.0681288 8.22008548,82.1186577 C10.228123,85.1685756 7.21749201,56.8740952 7.21749201,56.8740952" fill="#000000" opacity="0.03"></path>
                                    <path d="M10.9434177,57.5881527 C10.9434177,57.5881527 10.9560417,78.6129324 13.0585559,81.4043965 C15.160663,84.1958606 11.2529104,57.5679897 11.2529104,57.5679897" fill="#000000" opacity="0.03"></path>
                                </g>
                                <g transform="translate(49.885337, 4.888015)">
                                    <path d="M39.5714927,78.2015244 L38.2492259,0.777805441 C38.2492259,0.777805441 4.20482488,-0.866604386 0.899564976,0.778212776 C-2.40569493,2.42302994 6.05017512,32.1452182 12.5780278,38.3845661 C17.0054024,42.6159581 27.0113829,52.6223365 27.0113829,52.6223365 L26.7389479,56.3571875 C26.7389479,56.3571875 25.6339368,69.2963751 24.6977213,73.2666656 C23.7610987,77.2371597 23.8712536,80.1300501 22.7695003,80.9807685 C21.667747,81.8316905 30.4817735,83.8170394 32.1343016,83.8170394 C33.7870334,83.8170394 37.6434753,80.6974673 39.5712891,83.8170394 C41.4993065,86.9364078 39.5714927,78.2015244 39.5714927,78.2015244 L39.5714927,78.2015244 Z" fill="#FF9388"></path>
                                    <path d="M36.119631,50.244928 C36.119631,50.244928 30.3516644,7.86644602 32.5236108,1.49349235 C34.6955573,-4.87946131 36.5582147,50.1758848 36.5582147,50.1758848" fill="#000000" opacity="0.03"></path>
                                    <path d="M32.908237,49.9746615 C32.908237,49.9746615 23.5733669,8.27540997 25.1975928,1.7317831 C26.8218186,-4.81204744 33.3390834,49.8663105 33.3390834,49.8663105" fill="#000000" opacity="0.03"></path>
                                    <path d="M29.2885976,49.4404422 C29.2885976,49.4404422 15.9757283,8.90270527 16.9604038,2.22547265 C17.944672,-4.45216731 29.7070236,49.2889137 29.7070236,49.2889137" fill="#000000" opacity="0.03"></path>
                                    <polygon fill="#F9756E" points="39.0938151 55.5700134 35.0357957 56.2506695 30.3115525 56.3608535 26.8277234 55.5700134 27.0020167 52.3369986 31.4688923 52.8473889 35.3689076 52.9268191 39.0938151 52.3369986"></polygon>
                                    <path d="M26.5919388,50.5622417 C26.5919388,50.5622417 18.5196769,30.4714803 17.6416949,26.4848965 C16.4609395,21.1241693 11.307886,1.5604989 10.4818256,1.59125266 C9.48920917,1.62852378 14.5791425,25.2903877 15.4990688,27.3083234 C16.4185879,29.3260554 26.5919388,50.5622417 26.5919388,50.5622417 L26.5919388,50.5622417 Z" fill="#000000" opacity="0.03"></path>
                                    <path d="M19.6633746,44.4194321 C19.6633746,44.4194321 11.7220361,28.045599 10.8697095,24.7916065 C9.72356845,20.4160181 4.696959,4.45318564 3.87110215,4.48414307 C2.87828214,4.52121052 7.8153016,23.8357958 8.72199305,25.479391 C9.6286845,27.1231898 19.6633746,44.4194321 19.6633746,44.4194321 L19.6633746,44.4194321 Z" fill="#000000" opacity="0.03"></path>
                                    <path d="M36.923294,56.7681882 C36.923294,56.7681882 39.1679305,77.6658794 37.3781668,80.6791372 C35.5886067,83.6928023 36.613394,56.7832595 36.613394,56.7832595" fill="#000000" opacity="0.03"></path>
                                    <path d="M33.6646616,56.7773532 C33.6646616,56.7773532 34.3602057,78.9652768 32.3519646,82.0153984 C30.3441306,85.0657236 33.354558,56.7712432 33.354558,56.7712432" fill="#000000" opacity="0.03"></path>
                                    <path d="M29.6286324,57.4850971 C29.6286324,57.4850971 29.6160083,78.5102841 27.5136977,81.3015445 C25.4115907,84.0926012 29.3191397,57.464934 29.3191397,57.464934" fill="#000000" opacity="0.03"></path>
                                </g>
                            </g>
                            <rect id="Rectangle-path" fill="#967160" x="44.9986101" y="6.31368648" width="3.86865879" height="77.1899089"></rect>
                        </g>
                        <g id="Group" transform="translate(17.271022, 102.479362)">
                            <path d="M136.499721,14.0477488 C136.499721,21.6962708 108.402466,27.8965145 73.3009034,27.8965145 C38.1993405,27.8965145 10.1018826,21.6962708 10.1018826,14.0477488 C10.1018826,6.39922675 38.1993405,0.198982958 73.3009034,0.198982958 C108.402466,0.198982958 136.499721,6.39922675 136.499721,14.0477488 L136.499721,14.0477488 Z" id="Shape" fill="#F7F7F7"></path>
                            <g transform="translate(0.000000, 12.831040)">
                                <g>
                                    <path d="M133.098151,47.250815 L13.5036553,47.250815 C11.5259562,47.250815 9.77345379,45.668931 9.77345379,43.9693273 L9.77345379,2.72832723 C9.77345379,1.02851989 11.5259562,4.26325641e-14 13.5036553,4.26325641e-14 L133.098151,4.26325641e-14 C135.075647,4.26325641e-14 136.421126,1.02851989 136.421126,2.72832723 L136.421126,43.9693273 C136.421126,45.6691347 135.075647,47.250815 133.098151,47.250815 Z" id="Shape" fill="#F7F7F7"></path>
                                    <path d="M134.181376,47.0471477 L7.53370396,47.0471477 L7.53370396,22.6070709 L13.055909,22.5810015 C13.055909,22.5810015 28.6806074,20.4842466 33.9248798,20.4484012 C39.4126741,20.4107227 55.7913537,22.3805929 55.7913537,22.3805929 C55.7913537,22.3805929 68.52087,20.1361792 72.8138596,20.1123501 C77.2992641,20.0875027 90.6241466,22.2852766 90.6241466,22.2852766 C90.6241466,22.2852766 102.597035,20.2188681 106.611277,20.1628596 C113.518259,20.0667286 134.181376,22.6070709 134.181376,22.6070709 L134.181376,47.0471477 L134.181376,47.0471477 Z" id="Shape" fill="#D8D8D8"></path>
                                    <rect id="Rectangle-path" fill="#FFFFFF" x="9.77345379" y="27.9024209" width="126.647672" height="19.3483941"></rect>
                                    <g transform="translate(0.000000, 9.572363)" id="Shape" fill="#FFFFFF">
                                        <path d="M18.9360667,33.893091 C18.9360667,35.8715152 17.6296817,37.6784516 15.6519826,37.6784516 L3.835877,37.6784516 C1.8581779,37.6784516 0,35.8715152 0,33.893091 L0,3.44951316 C0,1.47149628 1.8581779,-2.84217094e-14 3.835877,-2.84217094e-14 L15.6519826,-2.84217094e-14 C17.6296817,-2.84217094e-14 18.9360667,1.47149628 18.9360667,3.44951316 L18.9360667,33.893091 L18.9360667,33.893091 Z"></path>
                                        <path d="M146.19458,33.893091 C146.19458,35.8715152 144.743425,37.6784516 142.76593,37.6784516 L130.949824,37.6784516 C128.972329,37.6784516 127.258513,35.8715152 127.258513,33.893091 L127.258513,3.44951316 C127.258513,1.47149628 128.972329,-2.84217094e-14 130.949824,-2.84217094e-14 L142.76593,-2.84217094e-14 C144.743425,-2.84217094e-14 146.19458,1.47149628 146.19458,3.44951316 L146.19458,33.893091 L146.19458,33.893091 Z"></path>
                                    </g>
                                </g>
                                <rect id="Rectangle-path" fill="#FFFFFF" opacity="0.05" x="22.3974983" y="40.5297939" width="101.80681" height="3.25867689"></rect>
                                <rect id="Rectangle-path" fill="#FFFFFF" opacity="0.05" x="19.1396803" y="27.6987536" width="3.25781793" height="19.3483941"></rect>
                                <rect id="Rectangle-path" fill="#FFFFFF" opacity="0.05" x="124.204309" y="27.6987536" width="3.25781793" height="19.3483941"></rect>
                            </g>
                        </g>
                        <g id="Group" transform="translate(74.650452, 27.733461)">
                            <g transform="translate(0.650452, 0.000000)">
                                <g>
                                    <rect id="Rectangle-path" fill="#FFFFFF" x="0.203613621" y="1.42567114" width="30.3384295" height="46.2324784"></rect>
                                    <path d="M30.7456567,48.8801534 L0,48.8801534 L0,0 L30.7456567,0 L30.7456567,48.8801534 L30.7456567,48.8801534 Z M0.203613621,47.0471477 L30.5420431,47.0471477 L30.5420431,1.83300575 L0.203613621,1.83300575 L0.203613621,47.0471477 L0.203613621,47.0471477 Z" id="Shape" fill="#CEAF93"></path>
                                </g>
                                <path d="M25.0444753,7.1283557 L25.0444753,13.8727985 C25.0444753,14.867917 25.0532307,15.8736262 24.8756796,16.3337106 C24.7001647,17.10174 24.3436372,17.5893195 24.3963732,18.0768991 C24.9750431,23.9280571 25.904132,29.2914319 25.090492,35.7519625 C25.0776644,36.2780352 25.2482926,36.748914 25.0446789,37.2075728 L25.0446789,41.3444631 L5.70138499,41.3444631 L5.70138499,37.2075728 L5.70138499,34.4710988 C5.90499861,34.4114243 6.91125712,32.9484821 6.75345657,32.2171128 C5.70118138,27.0975277 4.27588603,20.2712106 5.70118138,13.8727985 L5.70118138,11.1365283 L5.70118138,7.1283557 L25.0444753,7.1283557 L25.0444753,7.1283557 Z" id="Shape" fill="#FFC89F"></path>
                                <path d="M1.11641348,25.1309162 C1.78284086,28.5602663 3.44921473,30.5107881 4.24615844,26.6099482 C3.73895691,25.8785789 3.01449965,24.6596301 3.0869861,23.1968915 C3.15926894,19.5398413 4.60838707,18.8086757 5.55010007,20.2714143 C6.78175886,22.4655222 6.92652814,27.3415211 6.96969423,31.4478614 C7.16068381,31.7892078 7.38547325,31.9735267 7.65118902,31.9735267 C7.9409312,31.9735267 8.15818694,30.7545779 8.15818694,29.7794188 C8.15818694,27.8291007 7.86844475,25.8787826 8.15818694,23.9282608 C8.66538846,20.5150004 9.75207436,19.0522618 10.7664774,20.0274209 C11.2011925,20.5150004 11.5090563,21.6121562 11.7725323,22.8987225 C11.8604934,23.353308 11.9437714,23.8296858 12.0270493,24.6465953 C12.3601612,26.8537379 12.5049305,29.535629 13.2295914,30.7545779 C13.8090757,31.7297369 14.8957616,31.9735267 14.8234788,29.535629 C14.6785059,26.8539416 13.6643065,24.1720505 14.0265351,21.9779426 C14.3887637,20.0276245 15.2581939,18.3210962 16.1274204,17.8335166 C16.9243641,17.4677302 17.6125782,18.4430929 18.1592808,20.0903541 C18.3415149,20.6396448 18.5078673,21.2634777 18.6573197,21.9372092 C18.9529666,26.3665657 19.3874781,31.9737303 20.9813655,32.7050996 C21.6575664,33.1926792 22.3659382,32.379843 22.8273266,30.7729079 C22.9427755,30.3710723 23.0466185,29.9692367 23.1704156,29.9759577 C23.2272238,30.0234122 23.4444795,30.267202 23.4444795,29.7796225 C23.3719931,27.8293043 23.0822509,26.1225723 22.9507165,24.3184873 C22.8857637,23.8270381 22.8285483,23.3799884 22.7925087,22.9533054 C22.7200222,22.2219361 22.7200222,21.246777 22.937278,21.246777 C23.7342217,27.5855146 25.0381633,30.7547815 27.1392523,31.7299406 C27.2117387,31.7299406 27.0667658,33.9240485 27.2117387,33.9240485 C28.2259382,32.7050996 28.0086824,28.0728904 28.7331397,25.6349928 C29.0953683,24.1722542 29.6748527,26.1225723 29.9609298,27.5201374" id="Shape" fill="#FFFFFF"></path>
                            </g>
                        </g>
                    </g>
                </g>
            </g>
        </g>
    </g>
</svg>